<?xml version="1.0" standalone="no"?>
<!DOCTYPE svg PUBLIC "-//W3C//DTD SVG 20010904//EN"
 "http://www.w3.org/TR/2001/REC-SVG-20010904/DTD/svg10.dtd">
<svg version="1.0" xmlns="http://www.w3.org/2000/svg"
 width="1024.000000pt" height="1024.000000pt" viewBox="0 0 1024.000000 1024.000000"
 preserveAspectRatio="xMidYMid meet">

<g transform="translate(0.000000,1024.000000) scale(0.100000,-0.100000)"
fill="#000000" stroke="none">
<path d="M0 5120 l0 -5120 5120 0 5120 0 0 5120 0 5120 -5120 0 -5120 0 0
-5120z m5395 3725 c49 -5 73 -8 145 -20 19 -3 42 -6 50 -6 8 0 22 -3 30 -6 20
-7 51 -13 72 -14 10 0 20 -4 23 -9 3 -5 12 -7 19 -4 8 3 17 1 20 -5 4 -6 13
-8 20 -5 8 3 17 0 21 -5 3 -6 10 -9 15 -6 5 3 21 0 37 -7 15 -6 31 -12 36 -13
4 -2 9 -4 12 -5 3 -1 10 -4 15 -5 6 -1 12 -4 15 -5 3 -1 10 -4 15 -5 6 -1 12
-4 15 -5 3 -1 10 -4 15 -5 6 -1 13 -4 18 -5 4 -1 10 -2 15 -1 4 0 7 -4 7 -9 0
-5 3 -9 8 -9 4 1 9 1 12 -1 3 -1 16 -4 30 -6 14 -3 27 -9 28 -14 2 -6 8 -8 13
-4 5 3 9 0 9 -7 0 -7 3 -9 6 -6 4 3 16 1 28 -5 11 -7 24 -11 29 -10 4 1 7 -3
7 -10 0 -6 3 -9 6 -5 7 7 167 -71 172 -84 2 -5 8 -7 13 -3 5 3 9 0 9 -6 0 -6
5 -8 10 -5 6 3 10 1 10 -4 0 -6 7 -11 15 -11 8 0 15 -5 15 -11 0 -5 4 -8 8 -5
5 3 18 -3 29 -14 12 -10 23 -16 27 -13 3 3 8 -2 12 -11 3 -9 10 -13 15 -10 5
3 12 -2 15 -10 3 -9 10 -13 15 -10 5 3 12 -2 15 -10 3 -9 10 -13 15 -10 5 3
12 -2 15 -10 3 -9 10 -16 15 -16 9 0 21 -8 54 -37 7 -7 17 -13 21 -13 4 0 14
-7 23 -15 21 -19 69 -61 127 -110 91 -77 194 -179 194 -191 0 -7 14 -22 30
-34 17 -12 30 -26 30 -32 0 -6 10 -21 23 -34 60 -61 67 -71 67 -82 0 -7 5 -12
10 -12 6 0 10 -6 10 -14 0 -8 7 -17 16 -20 8 -3 13 -10 10 -15 -3 -5 1 -11 9
-15 8 -3 15 -12 15 -21 0 -8 5 -15 10 -15 6 0 10 -7 10 -15 0 -8 5 -15 10 -15
6 0 10 -7 10 -15 0 -8 5 -15 10 -15 6 0 10 -7 10 -15 0 -8 5 -15 11 -15 5 0 7
-4 4 -10 -3 -5 -1 -10 4 -10 6 0 11 -7 11 -15 0 -8 5 -15 11 -15 5 0 7 -4 4
-10 -3 -5 -1 -10 6 -10 7 0 10 -3 6 -6 -3 -3 3 -15 13 -27 11 -11 17 -24 14
-29 -3 -4 0 -8 6 -8 6 0 8 -4 5 -10 -3 -5 -1 -10 5 -10 6 0 8 -4 5 -10 -3 -5
-1 -10 5 -10 6 0 8 -4 5 -10 -3 -5 -1 -10 5 -10 6 0 8 -4 5 -10 -3 -5 -1 -10
5 -10 6 0 8 -4 5 -10 -3 -5 -1 -10 5 -10 6 0 8 -4 5 -10 -3 -5 -1 -10 5 -10 6
0 8 -4 5 -10 -3 -5 -1 -10 5 -10 6 0 9 -4 6 -9 -4 -5 -2 -11 3 -13 5 -1 11
-12 13 -23 1 -11 6 -22 10 -25 4 -3 9 -15 11 -25 2 -11 9 -30 15 -42 7 -13 9
-23 5 -23 -4 0 -2 -4 4 -8 7 -4 15 -19 17 -32 2 -14 5 -26 7 -27 1 -2 3 -7 4
-13 1 -5 4 -12 5 -15 1 -3 3 -8 5 -12 1 -5 7 -21 14 -37 6 -16 9 -31 6 -34 -2
-3 0 -11 6 -19 6 -7 8 -13 4 -13 -4 0 -2 -6 4 -14 6 -8 11 -18 10 -22 -1 -5 0
-11 1 -14 3 -8 11 -44 14 -60 1 -9 5 -21 10 -28 4 -6 5 -16 1 -21 -3 -5 -1
-12 4 -16 5 -3 10 -13 11 -23 1 -30 7 -82 10 -89 2 -5 4 -19 6 -33 2 -14 6
-45 9 -70 19 -145 24 -339 12 -480 -7 -82 -14 -135 -32 -250 -3 -19 -6 -42 -6
-50 -1 -8 -6 -20 -11 -26 -4 -6 -6 -18 -2 -27 3 -8 1 -18 -5 -21 -6 -4 -8 -13
-5 -20 3 -8 1 -17 -5 -20 -6 -4 -8 -13 -5 -20 3 -8 0 -17 -5 -21 -6 -3 -9 -11
-5 -16 3 -5 0 -16 -6 -24 -7 -8 -9 -15 -5 -15 4 0 2 -6 -4 -13 -6 -8 -8 -16
-6 -19 3 -3 1 -18 -5 -34 -6 -16 -11 -31 -12 -34 0 -3 -4 -11 -10 -17 -6 -7
-7 -13 -3 -13 4 0 2 -7 -5 -15 -7 -8 -9 -15 -5 -15 4 0 2 -7 -5 -15 -7 -8 -9
-15 -5 -15 4 0 0 -11 -9 -25 -9 -14 -14 -25 -10 -25 3 0 -1 -11 -10 -25 -9
-14 -14 -25 -11 -25 3 0 0 -10 -7 -22 -7 -13 -11 -26 -10 -30 1 -5 -3 -8 -8
-8 -5 0 -9 -3 -8 -7 3 -16 -15 -63 -24 -63 -5 0 -6 -4 -3 -10 3 -5 1 -10 -5
-10 -6 0 -8 -4 -5 -10 3 -5 1 -10 -5 -10 -6 0 -8 -4 -5 -10 3 -5 1 -10 -5 -10
-6 0 -8 -4 -5 -10 3 -6 1 -10 -5 -10 -6 0 -8 -4 -5 -10 3 -5 1 -10 -5 -10 -6
0 -8 -4 -5 -10 3 -5 1 -10 -4 -10 -6 0 -11 -8 -11 -18 0 -10 -9 -28 -20 -40
-11 -12 -20 -25 -20 -30 0 -5 -9 -19 -20 -32 -11 -13 -20 -29 -20 -37 0 -7 -4
-13 -10 -13 -5 0 -10 -7 -10 -15 0 -8 -5 -15 -11 -15 -5 0 -7 -5 -4 -10 3 -6
-1 -13 -9 -16 -9 -3 -13 -10 -10 -15 3 -5 -2 -12 -10 -15 -9 -3 -16 -12 -16
-19 0 -7 -7 -16 -16 -19 -8 -3 -13 -10 -9 -15 3 -6 -4 -15 -15 -21 -11 -6 -20
-17 -20 -25 0 -8 -11 -22 -25 -31 -14 -9 -25 -21 -25 -28 0 -6 -11 -22 -24
-36 -161 -170 -212 -220 -222 -220 -7 0 -22 -13 -34 -30 -12 -16 -26 -30 -32
-30 -5 0 -19 -11 -30 -25 -10 -13 -23 -24 -28 -22 -5 1 -16 -7 -25 -18 -9 -11
-13 -13 -9 -5 4 8 -9 -2 -29 -23 -20 -21 -41 -36 -47 -32 -5 3 -13 -1 -16 -9
-3 -9 -12 -16 -20 -16 -8 0 -14 -4 -14 -10 0 -5 -7 -10 -15 -10 -8 0 -15 -4
-15 -10 0 -5 -7 -10 -15 -10 -8 0 -15 -4 -15 -10 0 -5 -7 -10 -15 -10 -8 0
-15 -5 -15 -11 0 -5 -4 -8 -9 -5 -5 3 -12 -1 -15 -10 -3 -8 -10 -12 -16 -9 -5
3 -10 1 -10 -6 0 -7 -3 -10 -6 -6 -3 3 -14 -3 -25 -14 -11 -11 -24 -17 -29
-14 -6 4 -10 1 -10 -5 0 -6 -4 -8 -10 -5 -5 3 -10 1 -10 -5 0 -6 -4 -8 -10 -5
-5 3 -10 1 -10 -5 0 -6 -4 -8 -10 -5 -5 3 -10 1 -10 -5 0 -6 -4 -8 -10 -5 -5
3 -10 1 -10 -5 0 -6 -4 -8 -10 -5 -5 3 -10 1 -10 -5 0 -6 -4 -8 -10 -5 -5 3
-10 1 -10 -5 0 -6 -4 -8 -10 -5 -5 3 -10 1 -10 -5 0 -6 -4 -8 -10 -5 -5 3 -10
2 -10 -3 0 -9 -47 -27 -62 -24 -5 1 -8 -3 -8 -9 0 -5 -4 -7 -10 -4 -5 3 -10 1
-10 -5 0 -7 -7 -10 -15 -6 -8 3 -15 1 -15 -5 0 -6 -4 -7 -10 -4 -5 3 -10 1
-10 -5 0 -7 -7 -10 -15 -6 -8 3 -15 1 -15 -5 0 -6 -7 -9 -15 -5 -8 3 -15 1
-15 -4 0 -6 -3 -9 -7 -9 -5 1 -11 0 -15 -1 -5 -1 -12 -4 -18 -5 -5 -1 -12 -4
-15 -5 -3 -1 -8 -3 -12 -5 -5 -1 -21 -7 -36 -13 -16 -7 -33 -10 -38 -6 -5 3
-9 0 -9 -6 0 -7 -8 -9 -20 -5 -12 4 -20 2 -20 -5 0 -7 -7 -10 -15 -7 -8 4 -17
2 -21 -4 -3 -6 -12 -8 -20 -5 -7 3 -16 1 -20 -5 -3 -6 -13 -8 -21 -5 -9 4 -21
2 -27 -2 -6 -5 -18 -10 -26 -11 -23 -2 -53 -8 -70 -14 -8 -3 -22 -6 -30 -6 -8
-1 -31 -4 -50 -6 -280 -38 -522 -38 -780 0 -19 3 -45 5 -57 5 -12 0 -25 5 -28
10 -3 5 -12 7 -20 3 -9 -3 -21 0 -29 6 -7 6 -16 8 -19 4 -4 -3 -12 -1 -19 4
-12 10 -27 13 -70 14 -10 0 -18 5 -18 10 0 6 -9 7 -20 4 -12 -4 -20 -2 -20 5
0 6 -4 9 -9 6 -5 -4 -22 -1 -38 6 -15 6 -31 12 -35 13 -5 2 -10 4 -13 5 -3 1
-9 4 -15 5 -5 1 -12 4 -15 5 -3 1 -9 4 -15 5 -5 1 -13 4 -17 5 -5 1 -11 2 -15
1 -5 0 -8 4 -8 10 0 6 -7 9 -15 5 -8 -3 -15 -1 -15 4 0 5 -7 7 -15 4 -8 -4
-15 -1 -15 6 0 6 -4 8 -10 5 -5 -3 -10 -1 -10 5 0 6 -4 9 -9 5 -5 -3 -12 -1
-16 5 -4 6 -11 8 -16 5 -5 -4 -9 -1 -9 4 0 6 -3 10 -7 9 -16 -3 -63 15 -63 24
0 5 -5 6 -10 3 -6 -3 -10 -1 -10 6 0 7 -3 10 -6 6 -7 -7 -127 51 -132 64 -2 5
-8 7 -13 3 -5 -3 -9 0 -9 6 0 6 -4 8 -10 5 -5 -3 -10 -1 -10 5 0 6 -5 8 -10 5
-6 -3 -13 1 -16 9 -3 9 -10 13 -15 10 -5 -3 -9 0 -9 5 0 6 -7 11 -15 11 -8 0
-15 5 -15 11 0 5 -5 7 -10 4 -6 -3 -10 -1 -10 4 0 6 -7 11 -15 11 -8 0 -15 5
-15 10 0 6 -7 10 -15 10 -8 0 -15 5 -15 11 0 5 -5 7 -10 4 -6 -3 -13 1 -16 9
-3 9 -12 16 -20 16 -8 0 -14 5 -14 10 0 6 -7 10 -15 10 -9 0 -18 7 -21 15 -4
8 -13 15 -20 15 -8 0 -17 7 -21 16 -3 8 -16 20 -29 25 -13 4 -24 15 -24 24 0
8 -5 15 -11 15 -5 0 -7 -6 -4 -12 4 -7 -5 1 -19 17 -14 17 -29 30 -33 30 -10
1 -248 237 -248 247 0 3 -12 16 -28 28 -15 12 -25 26 -22 30 3 5 -4 14 -15 20
-11 6 -20 17 -20 25 0 8 -9 19 -20 25 -11 6 -18 15 -15 19 3 5 -2 11 -10 15
-8 3 -15 12 -15 20 0 7 -7 17 -16 20 -8 3 -13 10 -10 15 3 5 -1 12 -10 15 -8
3 -13 10 -10 15 3 5 -1 12 -10 15 -8 3 -12 10 -9 16 3 5 1 10 -4 10 -6 0 -11
7 -11 15 0 8 -5 15 -11 15 -5 0 -7 5 -4 10 3 6 1 10 -4 10 -6 0 -11 7 -11 15
0 8 -5 15 -11 15 -5 0 -7 5 -4 10 3 6 2 10 -4 10 -13 0 -42 55 -34 64 4 3 1 6
-6 6 -7 0 -9 4 -6 10 3 6 1 10 -5 10 -6 0 -8 5 -5 10 3 6 1 10 -5 10 -6 0 -8
5 -5 10 3 6 1 10 -5 10 -6 0 -8 5 -5 10 3 6 1 10 -5 10 -6 0 -8 5 -5 10 3 6 1
10 -5 10 -6 0 -8 5 -5 10 3 6 1 10 -5 10 -6 0 -8 5 -5 10 3 6 1 10 -5 10 -7 0
-10 7 -6 15 3 8 1 15 -5 15 -6 0 -7 5 -4 10 3 6 1 10 -5 10 -6 0 -9 4 -5 9 3
5 1 12 -5 16 -6 4 -8 11 -5 16 4 5 1 9 -5 9 -6 0 -8 5 -5 10 3 6 1 10 -5 10
-7 0 -10 7 -6 15 3 8 1 15 -5 15 -6 0 -7 5 -4 10 3 6 1 10 -5 10 -7 0 -10 7
-6 15 3 8 1 15 -5 15 -6 0 -9 7 -5 15 3 8 1 15 -4 15 -5 0 -7 7 -4 15 4 8 1
15 -6 15 -6 0 -9 4 -5 9 3 5 1 12 -4 16 -6 3 -8 12 -4 20 3 8 0 15 -7 15 -7 0
-10 7 -6 15 3 8 1 15 -5 15 -6 0 -9 7 -5 15 3 8 1 15 -5 15 -6 0 -8 9 -4 20 4
12 2 20 -5 20 -7 0 -10 8 -7 20 3 11 1 20 -5 20 -5 0 -6 9 -3 20 4 12 2 20 -5
20 -7 0 -10 8 -7 20 3 11 1 20 -5 20 -6 0 -7 11 -4 25 4 16 2 25 -5 25 -7 0
-9 9 -5 24 3 14 1 28 -5 31 -6 4 -8 18 -5 30 3 13 1 27 -5 31 -6 3 -9 19 -5
35 3 17 1 29 -5 29 -5 0 -9 21 -9 48 1 64 2 485 1 545 -1 26 3 47 8 47 5 0 10
17 10 38 0 81 1 92 11 92 6 0 8 10 4 24 -3 13 -1 27 4 30 6 3 8 15 5 26 -3 11
-1 20 5 20 6 0 8 9 5 20 -3 12 0 20 7 20 7 0 9 8 5 20 -4 12 -2 20 5 20 6 0 8
5 5 10 -4 6 -1 17 5 25 6 8 9 19 5 25 -3 5 -1 10 5 10 7 0 10 7 7 15 -4 8 -2
17 3 20 5 3 7 12 3 20 -3 8 0 15 6 15 6 0 8 7 5 15 -4 8 -1 15 5 15 6 0 8 7 5
15 -4 8 -1 15 5 15 6 0 10 3 10 8 -1 4 -1 9 1 12 1 3 4 16 6 30 3 14 9 27 14
28 6 2 8 8 4 13 -3 5 -1 9 5 9 6 0 8 7 5 15 -4 8 -2 15 3 15 5 0 10 10 10 22
1 13 7 24 13 26 5 2 8 8 4 13 -3 5 0 9 6 9 6 0 8 5 5 10 -3 6 -1 10 5 10 6 0
8 5 5 10 -3 6 -2 10 2 10 5 0 9 10 10 21 1 12 8 29 16 38 8 9 18 26 21 39 4
12 12 22 17 22 6 0 7 5 4 10 -3 6 -1 10 5 10 6 0 8 5 5 10 -3 6 -1 10 5 10 6
0 8 5 5 10 -3 6 -1 10 4 10 6 0 10 3 9 8 -3 12 25 62 34 62 5 0 6 5 3 10 -3 6
1 13 9 16 9 3 14 10 11 14 -2 4 6 19 19 33 13 14 21 28 19 31 -3 3 2 8 11 12
9 3 13 10 10 15 -3 5 2 12 10 15 9 3 13 10 10 15 -3 5 2 12 10 15 9 3 14 10
11 15 -3 4 4 13 15 19 11 6 18 15 15 20 -3 5 4 14 15 20 11 6 18 15 16 19 -3
5 7 20 22 35 15 15 44 46 64 69 33 37 132 138 226 230 18 18 37 32 42 32 5 0
17 10 25 23 9 12 20 22 24 22 5 0 25 16 45 35 21 19 42 33 47 30 5 -4 9 -1 9
4 0 6 6 11 14 11 8 0 16 7 20 15 3 8 12 15 21 15 8 0 15 5 15 11 0 5 4 8 9 4
6 -3 15 4 21 16 7 11 14 18 17 16 2 -3 13 2 24 11 11 9 22 16 24 15 3 -2 14 6
25 17 12 12 25 18 30 15 6 -4 10 -1 10 5 0 6 5 8 10 5 6 -3 10 -1 10 5 0 6 5
8 10 5 6 -3 10 -1 10 4 0 6 7 11 15 11 8 0 15 5 15 11 0 5 5 7 10 4 6 -3 10
-1 10 5 0 6 5 8 10 5 6 -3 10 -1 10 5 0 6 5 8 10 5 6 -3 10 -1 10 5 0 6 5 8
10 5 6 -3 10 -1 10 5 0 6 5 8 10 5 6 -3 10 -1 10 5 0 6 5 8 10 5 6 -3 10 -1
10 4 0 6 3 10 8 9 4 -1 21 5 38 15 17 9 34 13 38 10 3 -4 6 -1 6 5 0 7 3 11 8
10 4 -1 17 3 30 10 12 7 22 10 22 6 0 -3 7 -1 15 6 8 7 15 9 15 4 0 -5 4 -3 8
3 4 7 19 15 32 17 14 2 26 5 28 7 1 1 7 3 12 4 6 1 13 4 18 5 4 1 10 2 15 1 4
0 7 4 7 10 0 6 7 9 15 5 8 -3 15 -1 15 5 0 5 6 9 13 8 6 -1 25 3 40 9 15 7 31
11 35 11 4 -1 9 0 12 1 8 3 44 11 60 14 9 1 21 6 28 10 7 4 16 5 19 2 3 -3 14
-1 24 5 11 5 38 12 61 15 24 3 57 7 73 10 68 11 93 14 149 18 32 3 60 7 62 9
5 5 381 -1 439 -8z m1082 -5597 c12 -2 24 -6 28 -10 4 -4 13 -4 21 -1 8 3 14
0 14 -6 0 -6 3 -10 8 -10 4 1 9 0 12 -1 3 -1 13 -3 22 -5 28 -5 108 -48 108
-57 0 -5 4 -7 9 -3 6 3 15 -4 21 -15 6 -11 14 -19 18 -17 9 3 132 -120 132
-132 0 -5 7 -11 15 -15 8 -3 15 -12 15 -21 0 -8 5 -15 11 -15 5 0 7 -4 4 -10
-3 -5 -2 -10 3 -10 10 0 38 -60 34 -72 -1 -5 2 -8 8 -8 6 0 9 -3 9 -7 -1 -5 0
-11 1 -15 1 -5 4 -12 5 -18 1 -5 3 -11 5 -12 3 -4 11 -40 16 -73 8 -52 4 -245
-6 -265 -1 -3 -2 -9 -1 -14 1 -5 -3 -12 -10 -16 -6 -4 -11 -19 -11 -34 0 -14
-5 -26 -10 -26 -5 0 -6 -4 -3 -10 3 -5 1 -10 -5 -10 -6 0 -8 -4 -5 -10 3 -5 1
-10 -5 -10 -6 0 -8 -4 -5 -10 3 -5 1 -10 -5 -10 -6 0 -8 -4 -5 -10 3 -5 1 -10
-5 -10 -6 0 -9 -4 -6 -9 3 -5 -5 -20 -19 -35 -13 -14 -21 -26 -18 -26 3 0 -31
-36 -76 -80 -45 -44 -86 -78 -90 -75 -5 3 -12 -2 -15 -11 -3 -8 -10 -12 -16
-9 -5 3 -10 1 -10 -5 0 -6 -4 -8 -10 -5 -5 3 -10 1 -10 -5 0 -6 -4 -8 -10 -5
-5 3 -10 1 -10 -5 0 -6 -4 -8 -10 -5 -5 3 -10 1 -10 -5 0 -6 -4 -8 -10 -5 -5
3 -10 1 -10 -5 0 -7 -6 -10 -14 -7 -8 3 -16 1 -18 -4 -2 -6 -16 -12 -31 -12
-15 -1 -27 -5 -27 -9 0 -4 -10 -8 -22 -8 -13 0 -76 -2 -140 -4 -65 -2 -120 0
-123 5 -3 4 -12 6 -19 3 -8 -3 -17 0 -21 5 -3 6 -11 9 -16 6 -5 -4 -15 -3 -21
2 -7 4 -22 9 -33 10 -11 2 -22 8 -23 13 -2 6 -8 8 -13 4 -5 -3 -9 0 -9 6 0 6
-4 8 -10 5 -5 -3 -10 -1 -10 5 0 6 -4 8 -10 5 -5 -3 -10 -1 -10 5 0 6 -4 9 -8
6 -5 -3 -18 3 -29 14 -12 10 -23 17 -25 14 -8 -7 -138 117 -138 132 0 8 -7 17
-15 20 -8 4 -15 11 -15 16 0 6 -8 17 -17 25 -12 10 -13 12 -3 8 10 -4 9 -2 -2
8 -10 8 -15 17 -11 20 3 4 1 7 -6 7 -7 0 -9 5 -6 10 3 6 1 10 -5 10 -6 0 -8 5
-5 10 3 6 1 10 -5 10 -6 0 -8 5 -5 10 3 6 1 10 -6 10 -7 0 -9 3 -6 7 4 3 2 12
-4 20 -6 7 -8 13 -4 13 4 0 2 6 -4 14 -6 8 -11 18 -10 22 1 5 0 11 -1 14 -15
29 -15 280 0 310 1 3 3 10 5 15 1 6 3 12 4 15 1 3 5 16 7 30 3 14 9 26 14 28
5 2 6 10 3 18 -3 8 0 14 7 14 6 0 8 5 5 10 -3 6 -1 10 5 10 6 0 9 4 6 8 -3 5
4 18 14 30 11 12 20 26 20 32 0 5 5 10 10 10 6 0 10 7 10 15 0 8 9 19 21 25
11 7 18 14 15 18 -8 8 45 62 61 62 7 0 20 11 29 25 9 14 20 22 25 19 5 -3 12
2 15 10 3 9 10 14 14 11 4 -3 11 2 14 11 3 8 10 12 16 9 5 -3 10 -1 10 5 0 6
5 8 10 5 6 -3 10 -1 10 5 0 6 4 9 9 6 5 -4 11 -2 13 4 1 5 14 11 28 14 14 2
27 5 30 6 3 2 8 2 13 1 4 0 7 4 7 10 0 6 9 8 20 4 12 -4 20 -2 20 5 0 7 8 10
19 7 10 -2 24 -1 31 3 10 6 185 5 247 -2z m-3907 -11 c-1 -4 6 -15 15 -23 8
-9 13 -20 10 -25 -4 -5 -1 -9 5 -9 6 0 8 -4 5 -10 -3 -5 -1 -10 4 -10 6 0 10
-3 9 -7 -1 -5 3 -18 10 -29 6 -12 8 -24 5 -28 -3 -3 -1 -6 6 -6 7 0 9 -4 6
-10 -3 -5 -1 -10 4 -10 6 0 10 -3 9 -7 -1 -5 3 -18 10 -29 6 -12 8 -24 5 -28
-3 -3 -1 -6 5 -6 7 0 11 -3 10 -7 -1 -5 6 -23 15 -40 10 -18 18 -36 18 -40 1
-5 9 -24 20 -44 10 -20 15 -39 12 -43 -4 -3 -2 -6 4 -6 9 0 17 -17 28 -60 0
-3 11 -24 23 -46 11 -23 18 -44 15 -48 -4 -3 -1 -6 5 -6 7 0 11 -3 10 -7 -1
-5 3 -18 10 -29 6 -12 8 -24 5 -28 -3 -3 -1 -6 5 -6 7 0 11 -3 10 -7 -1 -5 5
-22 15 -39 9 -17 13 -34 10 -38 -4 -3 -1 -6 5 -6 7 0 11 -3 10 -7 -1 -5 3 -18
10 -29 6 -12 8 -24 5 -28 -3 -3 -1 -6 5 -6 7 0 11 -3 10 -7 -1 -5 3 -18 10
-29 6 -12 8 -24 5 -28 -3 -3 -1 -6 6 -6 7 0 9 -4 6 -10 -3 -5 -1 -10 5 -10 6
0 9 -4 6 -9 -4 -5 -1 -11 4 -13 6 -2 12 -13 13 -26 0 -12 5 -22 9 -22 4 0 7
-3 6 -7 -1 -5 5 -22 15 -39 9 -17 13 -34 10 -38 -4 -3 -2 -6 3 -6 10 0 40 -69
36 -82 -1 -5 3 -8 9 -8 5 0 8 -4 4 -9 -3 -5 -1 -12 5 -16 6 -4 8 -11 5 -16 -4
-5 -1 -9 5 -9 6 0 9 -4 6 -9 -4 -5 -2 -11 3 -13 6 -1 12 -15 15 -30 l4 -27
-151 -3 c-195 -4 -204 -2 -223 33 -8 16 -12 34 -9 39 3 6 1 10 -6 10 -7 0 -10
3 -6 6 3 4 -1 13 -9 21 -8 9 -13 22 -10 29 3 8 0 14 -6 14 -6 0 -8 3 -5 7 4 3
-1 12 -11 20 -9 8 -11 11 -3 7 9 -4 12 -3 7 4 -4 8 -82 10 -254 9 -215 -2
-251 -4 -265 -18 -9 -9 -13 -19 -10 -23 4 -3 1 -6 -6 -6 -7 0 -10 -4 -6 -9 3
-5 1 -12 -5 -16 -6 -4 -8 -11 -5 -16 4 -5 1 -9 -6 -9 -7 0 -9 -3 -6 -6 3 -4 1
-16 -5 -28 -7 -11 -11 -24 -10 -28 1 -5 -5 -8 -13 -8 -8 0 -12 -6 -9 -13 4
-11 -28 -15 -157 -21 -89 -3 -164 -4 -167 -1 -9 9 -10 55 -1 55 6 0 8 4 4 9
-3 5 -1 12 5 16 6 4 8 11 5 16 -4 5 -1 9 5 9 6 0 8 5 5 10 -3 6 -1 10 5 10 6
0 9 4 5 9 -3 5 -1 12 5 16 6 4 8 11 5 16 -4 5 -2 9 2 9 5 0 10 10 10 22 1 13
7 24 13 26 5 2 8 8 4 13 -3 5 -1 9 5 9 6 0 8 7 5 15 -4 8 -1 15 6 15 6 0 8 5
5 10 -3 6 -1 10 6 10 7 0 10 3 6 6 -8 8 13 64 25 64 5 0 6 5 3 10 -3 6 -1 10
5 10 6 0 9 4 5 9 -3 5 -1 12 5 16 6 4 8 11 5 16 -4 5 -1 9 5 9 6 0 8 5 5 10
-3 6 -1 10 6 10 7 0 9 3 6 6 -3 4 -1 16 5 28 7 11 11 24 10 29 -1 4 3 7 9 7 5
0 7 5 4 10 -3 6 -2 10 4 10 6 0 8 6 5 14 -3 7 2 20 10 29 8 8 12 17 9 21 -4 3
-2 6 3 6 5 0 11 10 11 22 1 13 7 24 13 26 5 2 8 8 4 13 -3 5 0 9 7 9 7 0 9 3
6 6 -3 4 -1 16 5 28 7 11 11 24 10 29 -1 4 3 7 10 7 6 0 9 3 5 6 -8 8 13 64
25 64 5 0 6 5 3 10 -3 6 -1 10 5 10 6 0 9 4 5 9 -3 5 -1 12 5 16 6 4 8 11 5
16 -4 5 -1 9 6 9 7 0 10 3 6 6 -11 11 15 64 31 64 15 0 15 2 2 10 -8 5 -10 10
-5 10 6 0 12 10 12 22 1 13 7 24 13 26 5 2 8 8 4 13 -3 5 -1 9 3 9 5 0 10 10
10 22 1 13 7 24 13 26 5 2 8 8 4 13 -3 5 0 9 6 9 6 0 8 5 5 10 -3 6 -1 10 6
10 7 0 9 3 6 6 -3 4 -1 16 5 28 7 11 11 24 10 29 -1 4 2 7 6 7 4 0 8 10 9 21
1 12 10 30 19 40 16 18 30 19 146 17 70 -2 128 -7 128 -11z m1044 -21 c14 -19
26 -37 26 -41 0 -3 11 -18 25 -33 14 -15 25 -30 25 -35 0 -7 9 -20 38 -52 6
-7 12 -18 12 -23 0 -6 7 -12 15 -16 8 -3 15 -12 15 -21 0 -8 5 -15 10 -15 6 0
10 -6 10 -14 0 -8 7 -16 15 -20 8 -3 15 -12 15 -20 0 -7 7 -16 15 -20 8 -3 15
-12 15 -21 0 -8 5 -15 10 -15 6 0 10 -6 10 -14 0 -8 7 -16 15 -20 8 -3 15 -12
15 -20 0 -7 7 -16 15 -20 8 -3 15 -12 15 -21 0 -8 5 -15 10 -15 6 0 10 -6 10
-14 0 -8 7 -16 15 -20 8 -3 15 -12 15 -21 0 -8 5 -15 10 -15 6 0 10 -6 10 -14
0 -8 7 -16 15 -20 8 -3 15 -12 15 -20 0 -7 7 -16 15 -20 8 -3 15 -12 15 -20 0
-7 7 -16 15 -20 14 -5 15 32 13 329 -2 265 0 334 10 330 6 -2 12 0 12 5 0 13
287 13 295 0 3 -5 6 -295 6 -642 l-1 -633 -136 -3 c-99 -3 -140 0 -148 9 -8 9
-7 10 4 5 8 -4 6 0 -5 9 -11 9 -20 20 -20 25 0 5 -9 16 -20 24 -11 9 -16 16
-10 16 5 0 -1 7 -13 16 -12 8 -20 19 -17 24 3 4 -2 10 -10 14 -8 3 -15 12 -15
20 0 7 -7 16 -15 20 -8 3 -15 12 -15 20 0 7 -7 17 -16 20 -8 3 -13 10 -10 15
3 5 -1 12 -10 15 -8 3 -13 10 -9 15 3 6 -4 15 -15 21 -11 6 -18 15 -15 19 3 5
-2 12 -11 15 -8 3 -13 10 -9 15 3 6 -4 15 -16 21 -11 7 -19 14 -16 16 2 3 -8
18 -24 34 -16 16 -29 35 -29 43 0 8 -7 18 -16 21 -8 3 -13 10 -9 15 3 6 -4 15
-15 21 -11 6 -18 15 -15 20 3 5 -4 14 -15 20 -11 6 -18 15 -15 19 3 5 -2 11
-10 15 -8 3 -15 10 -15 17 0 6 -10 20 -22 31 -13 11 -17 17 -10 13 22 -11 13
2 -14 20 -15 9 -23 12 -20 6 7 -11 7 -440 1 -585 -4 -75 -6 -80 -27 -82 -100
-10 -278 -12 -283 -4 -4 6 -11 7 -17 4 -7 -4 -8 -2 -4 4 4 7 2 12 -3 12 -17 0
-15 1242 1 1258 8 8 56 12 149 12 l137 0 26 -34z m1991 24 c8 -13 8 -287 1
-299 -4 -5 -76 -10 -161 -10 -85 -1 -161 -4 -169 -7 -8 -3 -17 -20 -20 -37 -4
-18 -6 -232 -6 -477 l2 -445 -143 -3 c-78 -2 -153 -1 -166 3 l-23 5 -2 478 -3
477 -150 2 c-82 1 -153 2 -157 3 -5 2 -14 3 -20 4 -19 2 -24 296 -6 307 19 13
1015 11 1023 -1z m1945 -7 c11 -10 20 -23 20 -30 0 -7 5 -13 10 -13 6 0 10 -6
10 -14 0 -8 7 -16 15 -20 8 -3 15 -12 15 -21 0 -8 5 -15 10 -15 6 0 10 -7 10
-15 0 -8 4 -15 8 -15 4 0 16 -15 27 -32 10 -18 25 -37 32 -41 7 -5 11 -12 8
-17 -3 -4 2 -10 10 -14 8 -3 15 -12 15 -21 0 -8 5 -15 10 -15 6 0 14 -8 17
-17 4 -10 12 -23 17 -30 30 -34 36 -43 36 -52 0 -5 7 -11 15 -15 8 -3 15 -12
15 -21 0 -8 5 -15 10 -15 6 0 10 -7 10 -15 0 -8 5 -15 10 -15 6 0 10 -7 10
-15 0 -8 9 -19 20 -25 11 -6 20 -15 20 -21 0 -11 15 -31 43 -57 9 -9 17 -22
17 -29 0 -7 5 -13 10 -13 6 0 10 -7 10 -15 0 -8 5 -15 10 -15 6 0 10 113 10
319 0 176 3 326 6 335 5 14 29 16 165 16 146 0 159 -1 169 -19 14 -28 14
-1251 -1 -1251 -5 0 -8 -4 -5 -8 3 -5 0 -9 -7 -9 -29 -2 -244 -2 -260 -1 -18
1 -66 58 -50 58 4 0 0 5 -10 11 -9 6 -15 14 -12 19 3 5 -4 14 -16 20 -11 7
-18 14 -15 17 3 4 -3 13 -14 20 -11 8 -18 18 -15 23 3 4 -2 11 -11 14 -9 4
-14 9 -10 13 3 3 -3 13 -14 20 -11 8 -18 18 -15 23 3 4 -2 10 -10 14 -8 3 -15
12 -15 20 0 7 -7 16 -15 20 -8 3 -15 12 -15 20 0 7 -7 17 -16 20 -8 3 -13 10
-9 15 3 6 -4 15 -15 21 -11 6 -18 15 -15 21 4 5 -1 12 -9 15 -9 3 -16 12 -16
19 0 7 -7 16 -16 19 -8 3 -13 10 -10 15 3 5 -1 11 -9 15 -8 3 -15 12 -15 20 0
7 -7 17 -16 20 -9 4 -14 9 -11 12 3 4 -4 15 -16 25 -12 10 -18 18 -12 19 5 0
-1 7 -13 16 -12 8 -20 19 -17 24 3 4 -2 10 -10 14 -8 3 -15 12 -15 21 0 8 -4
15 -10 15 -6 0 -10 -111 -10 -314 0 -203 -4 -317 -10 -321 -6 -4 -8 -10 -6
-14 5 -8 7 -8 -164 -11 -152 -2 -162 -1 -172 20 -11 25 -9 1229 2 1251 10 17
22 19 145 19 113 0 138 -3 155 -17z m-2115 -1723 c4 -6 10 -8 15 -5 5 3 11 1
15 -5 4 -6 11 -8 16 -5 5 4 9 -2 9 -12 0 -15 2 -16 10 -3 8 12 10 12 16 -3 3
-9 12 -17 19 -17 26 0 26 -20 0 -30 -14 -5 -30 -22 -36 -37 -8 -22 -12 -24
-19 -13 -5 8 -14 15 -20 15 -6 0 -14 6 -19 13 -5 8 -10 13 -12 11 -2 -1 -14 1
-26 5 -29 9 -99 -28 -108 -58 -10 -33 -12 -106 -3 -100 4 3 8 -1 8 -9 0 -8 7
-17 15 -21 8 -3 15 -11 15 -19 0 -9 14 -13 48 -13 26 -1 49 2 52 5 3 3 19 11
36 17 29 10 34 9 58 -16 31 -34 33 -47 6 -55 -11 -3 -20 -11 -20 -16 0 -6 -4
-8 -9 -5 -5 4 -11 1 -13 -6 -3 -8 -30 -13 -74 -14 -80 -3 -161 24 -150 51 3 8
2 14 -2 14 -20 -3 -31 3 -48 29 -24 36 -28 138 -7 171 8 13 10 20 4 17 -7 -5
-9 -1 -5 8 3 9 11 13 17 9 6 -4 7 -1 2 6 -8 14 31 61 52 61 7 0 13 5 13 11 0
5 4 8 9 4 5 -3 12 -1 16 5 4 6 10 8 14 6 4 -3 13 -1 21 5 20 12 77 11 85 -1z
m-890 -53 l0 -49 -55 4 -55 3 0 -150 0 -150 -46 0 -46 0 2 150 1 150 -58 -3
-58 -4 0 49 0 48 158 0 157 0 0 -48z m475 6 l0 -43 -67 -2 c-38 -1 -83 -2
-101 -3 -29 0 -32 -3 -32 -32 l0 -33 85 0 85 0 0 -34 c0 -19 -3 -37 -8 -40 -4
-2 -42 -6 -85 -8 -71 -3 -77 -5 -77 -25 0 -31 11 -35 108 -37 l87 -1 3 -45 3
-45 -143 0 -143 0 0 196 0 196 142 -1 143 -1 0 -42z m1022 33 c1 0 4 -87 7
-192 l6 -191 -47 1 -48 1 0 78 0 79 -72 -4 -73 -3 -5 -75 -5 -75 -40 3 c-22 2
-42 6 -45 9 -6 6 -8 330 -3 356 3 13 15 17 49 17 l44 0 0 -70 0 -70 75 0 75 0
0 69 c0 64 2 70 23 73 18 3 51 0 59 -6z"/>
<path d="M4608 8513 c-20 -23 -8 -58 18 -58 24 0 34 13 34 48 0 32 -28 37 -52
10z"/>
<path d="M5853 8376 c0 -36 -35 -85 -68 -96 -19 -6 -35 -16 -35 -22 0 -5 6 -8
13 -5 32 11 83 -35 90 -82 2 -11 7 -24 12 -28 4 -5 5 -3 1 4 -3 6 -2 14 4 18
6 4 8 10 6 14 -7 10 50 72 58 64 3 -4 6 -1 6 6 0 8 7 10 20 6 14 -5 20 -2 20
10 0 11 -6 15 -19 10 -11 -3 -26 1 -35 10 -9 9 -16 13 -16 8 -1 -4 -9 3 -20
16 -11 12 -17 27 -14 32 3 5 0 9 -6 9 -7 0 -10 7 -7 15 4 8 3 17 -2 19 -4 3
-8 -1 -8 -8z"/>
<path d="M5063 8347 c-2 -4 -8 -5 -13 -2 -5 3 -11 1 -15 -5 -4 -6 -11 -8 -16
-5 -5 4 -9 1 -9 -5 0 -6 -4 -9 -9 -6 -5 3 -12 -1 -15 -10 -4 -9 -9 -14 -13
-10 -9 8 -43 -24 -43 -41 0 -7 -4 -13 -9 -13 -5 0 -12 -13 -16 -30 -4 -16 -11
-30 -16 -30 -6 0 -8 -4 -4 -9 3 -5 1 -12 -4 -15 -8 -5 -7 -52 3 -134 2 -20 -2
-39 -11 -47 -8 -8 -12 -15 -9 -15 4 0 -5 -22 -19 -50 -14 -27 -26 -53 -27 -57
-1 -5 -8 -14 -15 -21 -7 -8 -11 -18 -8 -23 4 -5 1 -9 -5 -9 -6 0 -8 -4 -5 -10
3 -5 1 -10 -5 -10 -6 0 -8 -4 -5 -10 3 -5 1 -10 -5 -10 -6 0 -8 -4 -5 -10 3
-5 1 -10 -5 -10 -6 0 -8 -4 -5 -10 3 -5 1 -10 -5 -10 -6 0 -8 -4 -5 -10 3 -5
1 -10 -5 -10 -6 0 -9 -4 -5 -9 3 -5 -1 -16 -9 -24 -8 -8 -12 -17 -9 -21 4 -3
1 -6 -6 -6 -7 0 -9 -4 -6 -10 3 -5 1 -10 -4 -10 -6 0 -10 -4 -9 -8 4 -12 -44
-112 -54 -112 -5 0 -6 -4 -3 -10 3 -5 1 -10 -6 -10 -7 0 -10 -3 -6 -6 3 -4
-17 -52 -45 -108 -29 -55 -51 -104 -50 -108 1 -5 -3 -8 -9 -8 -5 0 -7 -4 -4
-10 3 -5 1 -10 -5 -10 -6 0 -8 -4 -5 -10 3 -5 1 -10 -5 -10 -6 0 -8 -4 -5 -10
3 -5 1 -10 -5 -10 -6 0 -8 -4 -5 -10 3 -5 1 -10 -5 -10 -6 0 -8 -4 -5 -10 3
-5 1 -10 -5 -10 -6 0 -8 -4 -5 -10 3 -5 1 -10 -5 -10 -6 0 -8 -4 -5 -10 3 -5
1 -10 -5 -10 -6 0 -8 -4 -5 -10 3 -5 1 -10 -5 -10 -6 0 -8 -4 -5 -10 3 -5 1
-10 -5 -10 -6 0 -8 -4 -5 -10 3 -5 1 -10 -5 -10 -6 0 -8 -4 -5 -10 3 -5 1 -10
-4 -10 -6 0 -10 -3 -10 -7 1 -5 1 -11 -1 -15 -2 -10 -2 -97 1 -103 1 -3 2 -9
3 -14 0 -6 7 -16 14 -22 6 -7 12 -17 12 -21 0 -14 33 -47 42 -42 4 3 8 0 8 -6
0 -6 5 -8 10 -5 6 3 10 2 10 -3 0 -10 5 -11 67 -14 24 -1 46 1 50 5 3 4 17 7
30 7 12 0 23 5 23 10 0 6 5 10 10 10 6 0 23 12 38 26 15 15 21 23 14 19 -11
-6 -11 -3 0 14 7 12 15 21 18 21 3 0 6 10 7 21 1 12 9 29 17 38 9 10 13 21 9
24 -3 4 -1 7 6 7 7 0 9 5 6 10 -3 6 -1 10 5 10 6 0 9 4 5 9 -3 5 2 16 10 25 9
8 15 19 15 23 -2 17 32 93 41 93 6 0 7 5 4 10 -3 6 -1 10 5 10 6 0 8 5 5 10
-3 6 -1 10 5 10 6 0 8 5 5 10 -3 6 -1 10 5 10 6 0 8 5 5 10 -3 6 -1 10 5 10 6
0 8 5 5 10 -3 6 -1 10 5 10 6 0 8 5 5 10 -3 6 -1 10 5 10 6 0 8 5 5 10 -3 6
-1 10 5 10 6 0 8 5 5 10 -3 6 -1 10 5 10 6 0 8 5 5 10 -3 6 -1 10 5 10 6 0 8
5 5 10 -3 6 -1 10 6 10 7 0 10 3 6 6 -8 8 13 64 25 64 5 0 6 5 3 10 -3 6 -1
10 5 10 6 0 8 5 5 10 -3 6 -1 10 5 10 6 0 8 5 5 10 -3 6 -1 10 5 10 6 0 8 5 5
10 -3 6 -1 10 5 10 6 0 8 5 5 10 -3 6 -1 10 5 10 6 0 8 5 5 10 -3 6 -1 10 5
10 6 0 8 5 5 10 -3 6 -1 10 5 10 6 0 9 4 5 9 -3 5 0 15 7 23 7 7 14 20 16 28
2 8 8 18 14 21 5 3 9 9 9 13 -3 20 0 27 12 23 6 -2 11 -10 10 -16 -2 -6 2 -11
8 -11 5 0 7 -4 4 -10 -3 -5 -1 -10 5 -10 6 0 8 -4 5 -10 -3 -5 -1 -10 6 -10 7
0 10 -3 6 -6 -3 -4 1 -13 9 -21 8 -8 12 -19 9 -24 -4 -5 -1 -9 5 -9 6 0 8 -4
5 -10 -3 -5 -1 -10 6 -10 7 0 10 -3 6 -6 -3 -3 7 -30 24 -58 16 -29 26 -56 22
-59 -3 -4 -1 -7 6 -7 7 0 9 -4 6 -10 -3 -5 -1 -10 5 -10 6 0 8 -4 5 -10 -3 -5
-2 -10 4 -10 10 0 27 -38 23 -52 -1 -5 3 -8 10 -8 6 0 9 -3 5 -6 -3 -4 1 -13
9 -21 8 -8 12 -19 9 -24 -4 -5 -1 -9 5 -9 6 0 8 -4 5 -10 -3 -5 -1 -10 5 -10
6 0 9 -4 5 -9 -3 -5 1 -16 9 -24 8 -8 12 -17 9 -21 -4 -3 0 -6 7 -6 7 0 10 -3
7 -7 -4 -3 0 -17 8 -30 9 -13 13 -29 9 -35 -4 -7 -3 -8 4 -4 11 6 16 -6 13
-26 0 -5 4 -8 10 -8 5 0 7 -4 4 -10 -3 -5 -1 -10 5 -10 6 0 8 -4 5 -10 -3 -5
-1 -10 5 -10 6 0 8 -4 5 -10 -3 -5 -1 -10 5 -10 6 0 8 -4 5 -10 -3 -5 -2 -10
2 -10 5 0 15 -16 22 -35 12 -35 61 -97 61 -79 0 5 4 3 9 -4 4 -7 17 -15 27
-17 10 -2 19 -4 19 -5 0 -6 108 -4 112 2 2 5 9 6 14 3 5 -4 9 -1 9 4 0 6 4 11
9 11 13 0 70 58 63 65 -3 3 0 5 6 5 7 0 11 3 11 8 -1 4 -1 9 0 12 8 20 5 108
-3 103 -5 -4 -7 1 -3 10 4 10 2 17 -4 17 -6 0 -8 7 -5 16 3 8 2 13 -2 10 -8
-4 -35 47 -32 60 1 4 -3 10 -8 13 -6 3 -12 13 -14 21 -2 8 -9 21 -16 29 -7 7
-11 20 -8 28 3 8 1 11 -4 8 -6 -3 -10 1 -10 9 0 25 -2 30 -18 42 -8 6 -12 16
-8 22 4 7 2 12 -4 12 -6 0 -8 5 -5 10 3 6 1 10 -5 10 -6 0 -8 5 -5 10 3 6 1
10 -5 10 -6 0 -8 5 -5 10 3 6 1 10 -5 10 -6 0 -8 5 -5 10 3 6 1 10 -5 10 -6 0
-8 5 -5 10 3 6 1 10 -5 10 -6 0 -8 5 -5 10 3 6 1 10 -5 10 -6 0 -8 5 -5 10 3
6 1 10 -5 10 -6 0 -8 5 -5 10 3 6 1 10 -5 10 -6 0 -8 5 -5 10 3 6 1 10 -5 10
-6 0 -8 5 -5 10 3 6 1 10 -5 10 -6 0 -8 5 -5 10 3 6 1 10 -5 10 -6 0 -9 4 -5
9 3 5 -1 16 -9 24 -8 8 -12 17 -9 21 4 3 1 6 -6 6 -7 0 -9 5 -6 10 3 6 1 10
-4 10 -6 0 -11 12 -11 27 0 14 -3 23 -7 20 -8 -9 -54 83 -47 95 3 4 0 8 -6 8
-6 0 -8 5 -5 10 3 6 1 10 -5 10 -6 0 -8 5 -5 10 3 6 1 10 -5 10 -6 0 -8 5 -5
10 3 6 1 10 -5 10 -6 0 -8 5 -5 10 3 6 1 10 -5 10 -6 0 -8 5 -5 10 3 6 1 10
-5 10 -6 0 -8 5 -5 10 3 6 1 10 -5 10 -6 0 -8 5 -5 10 3 6 1 10 -5 10 -6 0 -9
4 -6 9 4 5 1 11 -6 13 -9 3 -13 35 -13 106 0 56 -3 102 -7 102 -4 0 -4 7 -1
17 5 12 3 14 -7 8 -10 -6 -12 -4 -7 8 3 9 0 18 -9 21 -9 3 -14 9 -12 13 5 10
-70 82 -77 75 -3 -3 -5 0 -5 7 0 7 -4 10 -9 6 -5 -3 -16 1 -24 9 -8 8 -17 13
-20 10 -3 -4 -11 -3 -17 1 -16 10 -121 12 -127 2z"/>
<path d="M4672 8215 c-3 -40 15 -49 46 -25 27 22 28 35 5 46 -38 17 -49 12
-51 -21z"/>
<path d="M4216 8154 c-33 -33 -33 -68 -1 -98 28 -26 56 -27 84 -2 23 21 33 73
14 80 -7 3 -13 13 -13 21 0 9 -4 14 -9 10 -5 -3 -12 -1 -16 5 -10 17 -31 11
-59 -16z"/>
<path d="M6366 8131 c-4 -5 -3 -16 0 -25 3 -9 1 -23 -6 -31 -7 -8 -9 -15 -5
-15 5 0 0 -9 -10 -20 -10 -11 -15 -20 -10 -20 4 0 2 -7 -5 -15 -7 -8 -16 -12
-21 -9 -5 3 -9 0 -9 -6 0 -6 -4 -8 -10 -5 -5 3 -10 1 -10 -5 0 -6 -4 -9 -9 -5
-5 3 -13 0 -16 -6 -4 -5 -13 -8 -21 -5 -7 3 -16 1 -19 -4 -5 -9 26 -23 63 -29
17 -2 71 -54 66 -62 -3 -5 0 -9 6 -9 7 0 10 -6 7 -13 -3 -7 1 -24 9 -38 9 -16
14 -19 15 -9 1 8 3 20 4 25 2 6 3 15 4 21 1 15 58 73 74 77 6 1 15 6 18 10 3
5 22 9 42 10 45 2 35 15 -17 20 -21 3 -42 11 -47 18 -5 8 -9 10 -9 5 0 -5 -13
6 -30 24 -29 32 -34 46 -31 82 1 9 -3 19 -9 23 -6 3 -8 11 -5 16 4 5 4 9 1 9
-3 0 -7 -4 -10 -9z"/>
<path d="M3723 7842 c-4 -37 -11 -87 -13 -87 -1 0 -3 -9 -5 -19 -2 -10 -10
-23 -17 -27 -7 -5 -10 -9 -5 -9 4 0 -12 -18 -35 -40 -23 -23 -47 -39 -55 -36
-7 3 -13 1 -13 -5 0 -6 -7 -9 -15 -6 -8 4 -17 2 -20 -4 -4 -5 -12 -9 -18 -7
-23 4 -77 -14 -71 -23 3 -6 19 -7 34 -4 16 4 31 2 35 -5 3 -5 11 -8 16 -5 5 4
15 3 22 -2 6 -4 18 -8 26 -10 8 -1 18 -8 22 -15 5 -7 9 -9 9 -4 0 11 79 -73
81 -86 2 -13 5 -22 15 -43 4 -11 8 -37 8 -57 1 -25 5 -38 14 -38 10 0 12 8 7
30 -4 17 -2 36 3 43 6 7 11 15 11 20 1 4 1 8 2 10 0 1 2 11 4 22 2 11 9 21 15
23 5 2 8 7 5 12 -6 9 76 83 83 75 3 -3 10 0 17 5 6 5 20 11 31 13 10 2 26 7
34 10 8 4 28 6 44 4 16 -1 30 3 32 8 4 10 -14 13 -83 16 -18 0 -33 5 -33 11 0
5 -4 7 -9 3 -5 -3 -12 -1 -16 5 -4 6 -11 8 -16 5 -5 -4 -9 -1 -9 5 0 6 -5 8
-11 5 -6 -4 -13 2 -15 12 -3 11 -19 27 -35 37 -16 10 -27 22 -24 27 4 5 1 9
-5 9 -6 0 -8 5 -5 10 3 6 1 10 -5 10 -7 0 -9 8 -5 19 3 11 1 22 -5 26 -7 4 -9
17 -6 30 3 13 0 27 -7 33 -9 8 -13 7 -14 -6z m88 -179 c13 -16 12 -17 -3 -4
-10 7 -18 15 -18 17 0 8 8 3 21 -13z"/>
<path d="M6530 7731 c0 -34 23 -47 49 -28 27 18 28 25 6 41 -33 25 -55 20 -55
-13z"/>
<path d="M4344 7677 c-9 -25 3 -62 19 -61 10 1 24 2 33 3 8 0 13 5 10 10 -4 5
0 11 6 14 10 3 9 9 -3 21 -20 21 -59 29 -65 13z"/>
<path d="M5963 7625 c-17 -26 -18 -34 -7 -61 16 -38 58 -53 83 -29 10 8 21 12
26 8 4 -5 6 -3 2 2 -3 6 -2 17 3 24 4 8 3 29 -4 49 -11 31 -17 35 -48 36 -29
1 -39 -4 -55 -29z"/>
<path d="M6863 7547 c-3 -5 -11 -6 -19 -3 -8 3 -14 1 -14 -5 0 -6 -4 -8 -9 -4
-5 3 -16 -2 -24 -10 -9 -8 -18 -15 -21 -15 -17 0 -85 -90 -90 -120 -1 -3 -4
-9 -7 -15 -3 -5 -5 -38 -4 -73 2 -62 2 -64 -33 -87 -19 -13 -39 -22 -44 -19
-4 3 -11 -2 -14 -10 -3 -9 -12 -16 -20 -16 -8 0 -14 -4 -14 -10 0 -5 -6 -10
-14 -10 -8 0 -17 -7 -20 -16 -4 -9 -9 -14 -12 -12 -3 3 -19 -7 -36 -23 -17
-15 -35 -26 -39 -24 -4 3 -10 -2 -13 -11 -3 -8 -10 -13 -15 -10 -5 3 -12 -1
-15 -10 -3 -8 -10 -13 -15 -10 -5 3 -12 -1 -15 -10 -4 -9 -9 -14 -12 -11 -3 2
-17 -6 -31 -19 -14 -13 -32 -24 -39 -24 -8 0 -14 -4 -14 -10 0 -5 -6 -10 -14
-10 -8 0 -17 -7 -20 -16 -3 -8 -10 -13 -15 -10 -5 3 -11 -1 -15 -9 -3 -8 -12
-15 -21 -15 -8 0 -15 -5 -15 -11 0 -5 -4 -8 -9 -5 -5 3 -11 -1 -15 -9 -3 -8
-12 -15 -21 -15 -8 0 -15 -4 -15 -10 0 -5 -6 -10 -14 -10 -8 0 -17 -7 -20 -16
-4 -9 -9 -14 -12 -11 -3 2 -16 -6 -30 -20 -13 -13 -28 -22 -33 -19 -5 3 -12
-1 -15 -10 -3 -8 -10 -12 -16 -9 -6 3 -13 -1 -16 -9 -3 -9 -12 -16 -19 -16 -7
0 -16 -7 -19 -16 -3 -8 -10 -13 -15 -10 -5 3 -12 -1 -15 -10 -3 -8 -10 -13
-15 -10 -5 3 -12 -1 -15 -10 -3 -8 -10 -13 -15 -10 -5 3 -12 -1 -15 -10 -3 -8
-10 -12 -16 -9 -6 3 -13 -1 -16 -9 -3 -9 -10 -13 -15 -10 -5 3 -12 -2 -15 -10
-3 -9 -12 -16 -19 -16 -7 0 -16 -7 -19 -16 -3 -8 -10 -13 -15 -10 -5 3 -12 -1
-15 -10 -3 -8 -10 -13 -15 -10 -5 3 -11 -1 -15 -9 -3 -8 -12 -15 -20 -15 -7 0
-17 -7 -20 -16 -3 -8 -10 -13 -15 -10 -5 3 -12 -1 -15 -10 -4 -9 -9 -14 -12
-11 -3 2 -16 -6 -30 -20 -13 -13 -28 -22 -33 -19 -5 3 -12 -1 -15 -10 -4 -9
-9 -14 -13 -11 -3 4 -12 -1 -20 -11 -10 -12 -16 -14 -19 -4 -3 6 -10 10 -15 6
-5 -3 -9 0 -9 6 0 6 -4 8 -10 5 -5 -3 -10 -1 -10 5 0 6 -4 9 -9 5 -5 -3 -12
-1 -15 3 -3 5 -38 7 -78 5 -95 -4 -98 -5 -98 -15 0 -5 -4 -7 -9 -3 -5 3 -17
-2 -25 -11 -9 -8 -16 -13 -16 -9 0 3 -14 -10 -31 -29 -30 -35 -49 -40 -79 -21
-8 5 -24 11 -35 12 -10 2 -23 9 -27 16 -4 6 -8 8 -8 3 0 -5 -6 -3 -13 3 -8 6
-17 8 -20 4 -4 -3 -7 -1 -7 5 0 6 -7 9 -15 6 -8 -4 -15 -1 -15 6 0 6 -4 9 -9
5 -5 -3 -12 -1 -16 5 -4 6 -11 8 -16 5 -5 -4 -9 -1 -9 5 0 6 -4 8 -10 5 -5 -3
-10 -2 -10 4 0 6 -7 8 -15 5 -8 -4 -15 -1 -15 6 0 6 -4 9 -9 5 -5 -3 -12 -1
-16 5 -4 6 -11 8 -16 5 -5 -4 -9 -1 -9 5 0 6 -4 9 -9 5 -5 -3 -12 -1 -16 5 -4
6 -11 8 -16 5 -5 -4 -9 -2 -9 4 0 6 -7 8 -15 5 -8 -4 -15 -2 -15 3 0 5 -10 10
-22 10 -13 1 -24 7 -26 12 -2 5 -10 7 -18 4 -8 -3 -14 0 -14 7 0 6 -4 9 -9 5
-5 -3 -12 -1 -16 5 -4 6 -11 8 -16 5 -5 -4 -9 -1 -9 4 0 6 -3 10 -7 10 -5 -1
-10 -1 -13 1 -3 1 -16 4 -30 6 -14 3 -27 9 -28 14 -2 6 -8 8 -13 4 -5 -3 -9 0
-9 6 0 6 -4 9 -9 5 -5 -3 -12 -1 -16 4 -3 6 -13 7 -22 4 -11 -4 -14 -3 -9 5 5
8 2 10 -8 6 -9 -3 -16 -1 -16 6 0 6 -5 8 -10 5 -6 -4 -18 -1 -26 6 -9 7 -25
15 -37 16 -12 2 -25 9 -29 16 -4 6 -8 8 -8 3 0 -5 -6 -3 -13 3 -8 6 -17 8 -20
4 -4 -3 -7 -1 -7 5 0 6 -7 9 -15 6 -8 -4 -15 -1 -15 6 0 6 -4 8 -10 5 -5 -3
-10 -2 -10 4 0 6 -7 8 -15 5 -8 -4 -15 -1 -15 6 0 6 -4 8 -10 5 -5 -3 -10 -2
-10 4 0 6 -7 8 -15 5 -8 -4 -15 -1 -15 6 0 6 -5 8 -10 5 -6 -3 -10 -2 -10 4 0
6 -7 8 -15 5 -8 -4 -15 -2 -15 3 0 5 -10 9 -22 10 -11 1 -25 8 -29 15 -5 7 -9
9 -9 4 0 -5 -6 -3 -13 3 -8 6 -17 8 -20 4 -4 -3 -7 -1 -7 5 0 6 -7 9 -15 6 -8
-4 -15 -1 -15 6 0 6 -5 8 -10 5 -6 -3 -10 -2 -10 4 0 6 -7 8 -15 5 -8 -4 -15
-1 -15 5 0 6 -3 10 -7 10 -5 -1 -10 -1 -13 1 -3 1 -16 4 -30 6 -13 2 -27 8
-30 12 -3 4 -14 9 -25 10 -11 2 -22 8 -23 13 -2 5 -8 7 -13 3 -5 -3 -9 -1 -9
5 0 6 -7 8 -15 5 -8 -4 -15 -1 -15 6 0 6 -4 9 -9 5 -5 -3 -12 -1 -16 5 -4 6
-11 8 -16 5 -5 -4 -9 -1 -9 5 0 6 -4 9 -9 5 -5 -3 -12 -1 -16 5 -4 6 -11 8
-16 5 -5 -4 -9 -2 -9 4 0 6 -7 8 -15 5 -8 -4 -15 -1 -15 6 0 6 -4 8 -10 5 -5
-3 -10 -1 -10 5 0 6 -4 9 -9 5 -5 -3 -12 -1 -16 5 -4 6 -11 8 -16 5 -5 -4 -9
-1 -9 5 0 6 -4 9 -9 6 -9 -6 -35 44 -26 52 2 3 0 11 -6 19 -6 7 -8 13 -5 13 4
0 -2 13 -13 29 -11 15 -18 30 -16 33 3 2 -9 18 -27 34 -17 16 -28 22 -24 14 4
-8 -1 -5 -12 7 -11 12 -22 19 -26 16 -3 -4 -6 -1 -6 6 0 7 -3 10 -7 8 -5 -3
-19 0 -33 5 -31 12 -130 16 -137 5 -2 -4 -8 -5 -13 -2 -5 3 -11 1 -15 -5 -4
-6 -11 -8 -16 -5 -5 4 -9 1 -9 -6 0 -7 -3 -9 -7 -6 -3 4 -12 -2 -20 -13 -8
-11 -20 -20 -27 -20 -7 0 -18 -11 -24 -25 -6 -14 -16 -25 -22 -25 -6 0 -8 -4
-5 -10 3 -5 1 -10 -6 -10 -7 0 -10 -3 -6 -6 3 -4 1 -18 -6 -33 -16 -32 -15
-128 1 -157 6 -12 8 -24 5 -28 -3 -3 0 -6 7 -6 7 0 11 -3 7 -6 -3 -4 -1 -12 6
-19 7 -7 19 -22 27 -35 31 -45 171 -96 219 -79 12 5 27 7 31 4 5 -3 11 -1 15
5 4 6 11 8 16 5 5 -4 9 -1 9 5 0 6 4 9 9 5 6 -3 20 5 32 17 12 13 18 16 14 8
-6 -10 -1 -8 13 4 24 21 29 31 10 20 -7 -4 -1 6 14 21 26 27 27 28 52 11 14
-9 26 -14 26 -11 0 3 10 0 23 -7 12 -6 31 -13 42 -15 10 -2 22 -7 25 -11 3 -4
14 -9 25 -10 11 -2 23 -9 27 -15 4 -7 8 -8 8 -3 0 5 6 3 13 -3 8 -6 17 -8 20
-4 4 3 7 1 7 -5 0 -7 3 -11 8 -11 4 1 9 1 12 -1 3 -1 16 -4 30 -6 13 -2 27 -8
30 -12 3 -4 14 -9 25 -10 11 -2 22 -7 25 -10 3 -4 14 -9 25 -10 11 -2 21 -8
23 -12 2 -5 9 -7 16 -4 8 3 21 -2 30 -11 9 -9 16 -13 16 -9 0 3 6 1 13 -5 8
-6 17 -8 20 -4 4 3 7 1 7 -6 0 -7 4 -10 9 -6 5 3 12 1 16 -5 4 -6 11 -8 16 -5
5 4 9 2 9 -4 0 -6 7 -8 15 -5 8 4 15 1 15 -7 0 -7 3 -9 7 -6 3 4 17 0 30 -8
13 -9 23 -13 23 -10 0 3 10 0 23 -7 12 -6 31 -13 42 -15 10 -2 22 -7 25 -11 3
-4 14 -9 25 -10 11 -2 23 -8 26 -14 3 -5 9 -9 13 -9 3 1 7 1 9 0 1 0 13 -3 27
-5 13 -2 27 -8 30 -12 3 -4 14 -9 25 -10 11 -2 23 -9 27 -15 4 -7 8 -8 8 -3 0
5 6 3 13 -3 8 -6 17 -8 20 -4 4 3 7 1 7 -5 0 -6 7 -9 15 -6 8 4 15 1 15 -6 0
-6 5 -8 10 -5 6 3 10 1 10 -5 0 -6 4 -9 9 -5 5 3 12 1 16 -4 3 -6 12 -8 19 -5
7 3 20 -1 27 -8 8 -7 23 -15 34 -16 11 -2 22 -7 25 -10 3 -4 14 -9 25 -10 11
-2 23 -9 27 -15 4 -7 8 -8 8 -3 0 5 6 3 13 -3 8 -6 17 -8 20 -4 4 3 7 0 7 -7
0 -7 3 -10 7 -7 3 4 12 2 20 -4 7 -6 13 -8 13 -5 0 4 10 1 23 -6 12 -6 31 -13
42 -15 10 -2 23 -9 27 -16 4 -6 8 -8 8 -3 0 5 6 3 13 -3 8 -6 17 -8 20 -4 4 3
7 1 7 -5 0 -7 3 -11 8 -11 4 1 9 0 12 -1 3 -1 12 -3 20 -5 8 -1 33 -11 55 -20
22 -10 42 -19 45 -20 32 -8 47 -17 48 -28 1 -16 10 -71 12 -77 2 -3 2 -8 1
-12 0 -5 4 -8 10 -8 5 0 7 -4 4 -10 -3 -5 -1 -10 5 -10 6 0 8 -4 5 -10 -3 -5
-2 -10 3 -10 5 0 14 -11 20 -25 6 -14 18 -25 26 -25 8 0 19 -7 24 -16 5 -9 12
-16 15 -16 18 0 47 -11 47 -19 0 -5 6 -6 14 -3 8 3 16 2 19 -3 6 -10 98 -9
115 1 7 4 17 4 22 1 6 -3 10 -2 10 3 0 5 8 12 18 14 9 3 20 6 24 7 14 4 83 76
80 84 -2 4 2 7 8 7 6 0 9 4 5 9 -3 5 1 16 9 24 8 8 13 17 10 20 -4 3 -2 12 2
19 11 16 13 108 4 108 -4 0 -7 11 -7 25 0 13 3 22 7 20 4 -3 10 2 14 10 3 8
12 15 21 15 8 0 15 5 15 10 0 6 7 10 15 10 8 0 15 5 15 10 0 6 6 10 14 10 8 0
16 7 20 15 3 8 12 15 21 15 8 0 15 5 15 10 0 6 5 10 10 10 6 0 23 11 37 24 15
14 30 23 34 20 5 -2 13 5 19 16 6 11 15 18 19 15 5 -3 12 2 15 11 3 8 10 13
15 10 5 -3 12 1 15 10 3 8 10 13 15 10 5 -3 12 1 15 10 3 8 10 12 16 9 6 -3
13 1 16 9 3 9 12 16 20 16 8 0 14 5 14 10 0 6 7 10 15 10 8 0 15 5 15 10 0 6
6 10 14 10 8 0 17 7 20 16 3 8 10 12 16 9 6 -3 13 1 16 9 3 9 12 16 20 16 8 0
14 5 14 10 0 6 7 10 15 10 8 0 15 5 15 10 0 6 6 10 14 10 8 0 17 7 20 16 3 8
10 13 15 10 5 -3 12 1 15 10 4 9 9 14 12 11 3 -2 17 6 31 19 14 13 32 24 39
24 8 0 14 5 14 10 0 12 73 58 78 50 2 -3 8 3 13 13 6 9 17 17 24 17 8 0 15 5
15 10 0 6 6 10 14 10 8 0 17 7 20 16 4 9 9 14 12 11 3 -2 17 6 31 19 14 13 32
24 39 24 8 0 14 5 14 10 0 6 4 10 9 10 6 0 22 11 37 25 15 14 33 25 40 25 8 0
14 5 14 11 0 5 5 7 10 4 6 -3 13 1 16 9 3 9 12 16 20 16 8 0 14 5 14 10 0 6 6
10 14 10 8 0 16 6 19 14 7 17 39 15 45 -2 2 -7 8 -10 13 -6 5 3 9 0 9 -5 0 -6
3 -10 8 -10 4 1 9 0 12 -1 35 -13 169 -19 176 -8 3 5 10 6 15 3 5 -4 9 -1 9 4
0 6 9 11 20 11 11 0 20 5 20 10 0 6 3 9 8 8 10 -3 71 60 64 66 -3 3 2 8 11 12
9 3 13 12 10 20 -3 8 0 14 6 14 6 0 8 7 5 15 -4 8 -2 15 2 15 7 0 10 109 4
118 -2 1 -3 5 -4 10 -1 4 -8 18 -16 32 -8 14 -15 27 -15 30 0 3 -17 21 -37 40
-38 38 -85 65 -105 61 -7 -1 -13 2 -13 6 0 11 -110 10 -117 0z"/>
<path d="M4102 7368 c-7 -7 -12 -8 -12 -4 0 5 -9 -2 -19 -15 -48 -59 27 -140
94 -102 14 8 20 22 20 50 0 35 -21 74 -37 66 -4 -2 -9 1 -13 7 -8 13 -18 13
-33 -2z"/>
<path d="M6243 7261 c-19 -30 -10 -56 20 -57 34 -1 46 30 21 57 -21 24 -26 24
-41 0z"/>
<path d="M5120 6906 c0 -5 -3 -6 -7 -3 -3 4 -14 -6 -24 -23 -16 -26 -17 -33
-4 -62 8 -18 14 -29 15 -24 0 5 6 4 13 -1 6 -6 24 -13 38 -16 21 -5 28 -2 39
18 7 14 16 25 20 25 3 0 5 13 4 30 -2 30 -26 64 -38 53 -3 -4 -6 -2 -6 3 0 5
-11 9 -25 9 -14 0 -25 -4 -25 -9z"/>
<path d="M7286 6773 c-4 -5 -12 -8 -17 -8 -5 0 -9 -4 -10 -10 0 -5 -5 -16 -11
-22 -15 -19 -1 -61 27 -79 26 -17 79 -12 91 8 5 7 2 8 -7 3 -8 -5 -6 1 5 13
12 14 16 27 11 39 -5 10 -8 21 -7 25 1 3 -6 12 -15 20 -14 11 -16 11 -8 -2 6
-11 3 -10 -12 3 -21 18 -35 21 -47 10z"/>
<path d="M6823 6736 c-27 -23 -27 -25 -10 -44 18 -19 39 -23 53 -9 13 12 12
52 -2 64 -10 10 -18 8 -41 -11z"/>
<path d="M3359 6545 c0 0 -3 -13 -5 -28 -5 -30 14 -57 40 -57 29 0 38 48 14
77 -7 9 -37 14 -49 8z"/>
<path d="M7109 6528 c0 -7 -3 -22 -5 -33 -3 -11 -6 -26 -6 -32 -1 -7 -5 -13
-10 -13 -4 0 -8 -6 -8 -13 0 -8 -9 -22 -20 -32 -11 -10 -20 -14 -20 -9 0 5 -4
3 -9 -4 -4 -7 -14 -14 -22 -15 -8 -2 -20 -6 -27 -10 -7 -5 -21 -6 -31 -2 -32
10 -33 -12 -1 -24 17 -5 30 -7 30 -4 0 3 6 0 13 -6 8 -6 17 -8 20 -4 4 3 7 1
7 -5 0 -7 3 -11 8 -9 10 3 72 -63 73 -79 1 -8 3 -18 4 -24 1 -5 3 -20 4 -32
l1 -22 15 21 c9 12 14 26 13 30 -7 25 54 112 75 105 4 -1 7 3 7 8 0 6 3 9 8 9
4 -1 9 0 12 1 11 4 46 11 67 13 30 3 30 17 1 18 -28 2 -50 5 -63 9 -5 1 -13 2
-17 1 -5 0 -8 4 -8 9 0 6 -3 9 -7 8 -9 -3 -67 52 -69 65 -1 4 -3 10 -4 15 -1
4 -2 11 -1 16 1 4 -3 14 -10 22 -6 7 -8 18 -4 24 3 5 1 10 -4 10 -6 0 -11 -6
-12 -12z"/>
<path d="M2929 6502 c-8 -46 5 -72 35 -72 31 0 35 6 27 38 -5 17 -17 28 -34
33 -15 4 -28 4 -28 1z"/>
<path d="M6595 6380 c-3 -6 -9 -9 -13 -7 -4 2 -14 -3 -22 -12 -17 -19 -23 -81
-7 -81 6 0 7 -3 4 -7 -12 -11 48 -31 76 -26 27 5 51 47 45 79 -6 37 -68 77
-83 54z"/>
<path d="M6035 6367 c-22 -6 -43 -16 -47 -22 -4 -5 -8 -7 -8 -3 0 4 -12 -5
-27 -20 -15 -15 -27 -30 -25 -34 1 -5 -2 -8 -8 -8 -5 0 -9 -3 -9 -7 1 -5 1
-10 0 -13 -7 -19 -5 -100 2 -103 4 -1 9 -12 10 -25 0 -12 5 -22 10 -22 4 0 5
-4 2 -10 -3 -5 -1 -10 5 -10 6 0 8 -4 5 -10 -3 -5 -1 -10 5 -10 6 0 8 -4 5
-10 -3 -5 -1 -10 5 -10 6 0 8 -4 5 -10 -3 -5 -1 -10 5 -10 6 0 9 -4 5 -9 -3
-5 1 -16 9 -24 8 -8 12 -17 9 -21 -4 -3 -1 -6 6 -6 7 0 9 -4 6 -10 -3 -5 -1
-10 5 -10 6 0 8 -4 5 -10 -3 -5 -1 -10 5 -10 6 0 8 -4 5 -10 -3 -5 -1 -10 5
-10 6 0 8 -4 5 -10 -3 -5 -1 -10 4 -10 6 0 10 -3 10 -7 -3 -18 2 -32 14 -45
16 -17 93 -179 90 -190 -2 -4 2 -8 8 -8 5 0 7 -4 4 -10 -3 -5 -1 -10 5 -10 6
0 8 -4 5 -10 -3 -5 -1 -10 5 -10 6 0 8 -4 5 -10 -3 -5 -1 -10 5 -10 6 0 8 -4
5 -10 -3 -5 -1 -10 5 -10 6 0 8 -4 5 -10 -3 -5 -1 -10 5 -10 6 0 8 -4 5 -10
-3 -5 -1 -10 5 -10 6 0 8 -4 5 -10 -3 -5 -1 -10 6 -10 7 0 9 -3 6 -7 -4 -3 3
-21 14 -40 30 -49 72 -136 72 -150 0 -7 4 -13 8 -13 8 0 24 -40 21 -52 -1 -5
3 -8 9 -8 5 0 7 -4 4 -10 -3 -5 -1 -10 5 -10 6 0 8 -4 5 -10 -3 -5 -1 -10 5
-10 6 0 8 -4 5 -10 -3 -5 -1 -10 5 -10 6 0 8 -4 5 -10 -3 -5 -1 -10 5 -10 6 0
9 -4 5 -9 -3 -5 1 -16 9 -24 8 -8 12 -17 9 -21 -4 -3 -1 -6 6 -6 7 0 9 -4 6
-10 -3 -5 -1 -10 5 -10 6 0 9 -4 5 -9 -3 -5 -1 -12 4 -15 11 -7 74 -137 74
-153 0 -7 4 -13 9 -13 5 0 6 -4 3 -10 -3 -5 -1 -10 5 -10 6 0 8 -4 5 -10 -3
-5 -1 -10 5 -10 6 0 8 -4 5 -10 -3 -5 -1 -10 4 -10 6 0 11 -9 11 -20 0 -11 5
-20 11 -20 5 0 8 -4 5 -9 -3 -5 1 -12 10 -15 8 -3 13 -9 11 -13 -6 -10 19 -34
27 -26 3 3 8 -2 12 -11 3 -9 10 -13 15 -10 5 3 9 0 9 -6 0 -6 4 -9 9 -5 5 3
12 2 15 -3 6 -11 106 -9 124 1 6 5 12 5 12 0 0 -4 5 -1 10 7 5 8 13 15 18 15
14 0 42 33 42 50 0 9 4 13 10 10 6 -3 7 1 4 9 -3 9 -2 16 3 16 7 0 9 90 2 110
-1 3 -1 8 0 13 0 4 -4 7 -10 7 -5 0 -7 5 -4 10 3 6 1 10 -5 10 -6 0 -8 5 -5
10 3 6 1 10 -5 10 -6 0 -8 5 -5 10 3 6 1 10 -5 10 -6 0 -8 5 -5 10 3 6 1 10
-5 10 -6 0 -8 5 -5 10 3 6 1 10 -5 10 -6 0 -8 5 -5 10 3 6 1 10 -5 10 -6 0 -8
5 -5 10 3 6 1 10 -5 10 -6 0 -8 5 -5 10 3 6 1 10 -5 10 -6 0 -8 5 -5 10 3 6 1
10 -5 10 -6 0 -8 5 -5 10 3 6 1 10 -5 10 -6 0 -8 5 -5 10 3 6 1 10 -5 10 -6 0
-8 5 -5 10 3 6 1 10 -5 10 -6 0 -8 5 -5 10 3 6 1 10 -5 10 -6 0 -8 5 -5 10 3
6 1 10 -5 10 -6 0 -8 5 -5 10 3 6 1 10 -5 10 -6 0 -8 5 -5 10 3 6 1 10 -5 10
-6 0 -8 5 -5 10 3 6 1 10 -5 10 -6 0 -8 5 -5 10 3 6 1 10 -5 10 -6 0 -8 5 -5
10 3 6 1 10 -5 10 -6 0 -8 5 -5 10 3 6 1 10 -5 10 -6 0 -9 4 -6 9 4 5 3 11 -2
13 -12 5 -81 156 -74 162 3 3 0 6 -7 6 -7 0 -9 5 -6 10 3 6 1 10 -5 10 -6 0
-8 5 -5 10 3 6 1 10 -5 10 -6 0 -8 5 -5 10 3 6 1 10 -5 10 -6 0 -8 5 -5 10 3
6 1 10 -5 10 -6 0 -8 5 -5 10 3 6 1 10 -5 10 -6 0 -8 5 -5 10 3 6 1 10 -5 10
-6 0 -8 5 -5 10 3 6 1 10 -5 10 -6 0 -8 5 -5 10 3 6 1 10 -5 10 -6 0 -8 5 -5
10 3 6 1 10 -5 10 -6 0 -8 5 -5 10 3 6 1 10 -5 10 -6 0 -8 5 -5 10 3 6 1 10
-5 10 -6 0 -8 5 -5 10 3 6 1 10 -5 10 -6 0 -8 5 -5 10 3 6 1 10 -5 10 -6 0 -8
5 -5 10 3 6 1 10 -5 10 -6 0 -8 5 -5 10 3 6 1 10 -5 10 -6 0 -8 5 -5 10 3 6 1
10 -5 10 -6 0 -8 5 -5 10 3 6 2 10 -3 10 -11 0 -47 78 -45 98 0 6 -3 12 -9 12
-5 0 -6 5 -3 10 3 6 1 10 -5 10 -6 0 -8 5 -5 10 3 6 1 10 -5 10 -6 0 -8 5 -5
10 3 6 1 10 -5 10 -6 0 -8 5 -5 10 3 6 1 10 -5 10 -6 0 -8 5 -5 10 3 6 1 10
-5 10 -6 0 -8 5 -5 10 3 6 1 10 -5 10 -6 0 -8 5 -5 10 3 6 1 10 -5 10 -6 0 -8
5 -5 10 3 6 1 10 -5 10 -6 0 -8 5 -5 10 3 6 1 10 -5 10 -6 0 -8 5 -5 10 3 6 1
10 -5 10 -6 0 -8 5 -5 10 3 6 1 10 -5 10 -6 0 -8 5 -5 10 3 6 2 10 -4 10 -10
0 -27 38 -23 53 1 4 -3 7 -10 7 -6 0 -8 3 -5 7 4 3 -2 13 -13 20 -11 8 -18 18
-15 23 3 4 -3 14 -12 21 -14 12 -16 12 -9 -1 4 -9 1 -8 -7 3 -8 9 -22 17 -31
17 -9 0 -16 4 -16 8 0 4 -8 8 -17 8 -10 1 -25 3 -33 6 -8 3 -33 1 -55 -5z"/>
<path d="M4104 6298 c-3 -5 -10 -6 -15 -3 -5 4 -9 1 -9 -5 0 -6 -4 -8 -10 -5
-5 3 -10 2 -10 -3 0 -5 -9 -12 -21 -15 -11 -3 -23 -15 -26 -26 -3 -12 -10 -21
-15 -21 -5 0 -6 -4 -3 -10 3 -5 1 -10 -5 -10 -6 0 -8 -4 -5 -10 3 -5 1 -10 -5
-10 -6 0 -8 -4 -5 -10 3 -5 1 -10 -5 -10 -6 0 -8 -4 -5 -10 3 -5 1 -10 -5 -10
-6 0 -9 -4 -5 -9 3 -5 -1 -16 -9 -24 -8 -8 -12 -17 -9 -21 4 -3 1 -6 -5 -6 -7
0 -11 -3 -10 -7 4 -15 -14 -53 -24 -53 -6 0 -8 -3 -5 -6 3 -4 -7 -32 -23 -63
-17 -31 -30 -61 -30 -67 0 -6 -9 -21 -20 -34 -11 -12 -17 -27 -14 -31 3 -5 0
-9 -6 -9 -6 0 -8 -4 -5 -10 3 -5 1 -10 -5 -10 -6 0 -8 -4 -5 -10 3 -5 1 -10
-5 -10 -6 0 -8 -4 -5 -10 3 -5 1 -10 -5 -10 -6 0 -8 -4 -5 -10 3 -5 1 -10 -5
-10 -6 0 -8 -4 -5 -10 3 -5 1 -10 -5 -10 -6 0 -8 -4 -5 -10 3 -5 1 -10 -5 -10
-6 0 -8 -4 -5 -10 3 -5 1 -10 -5 -10 -6 0 -8 -4 -5 -10 3 -5 1 -10 -5 -10 -6
0 -8 -4 -5 -10 3 -5 1 -10 -5 -10 -6 0 -9 -4 -5 -9 3 -5 -1 -16 -9 -24 -8 -8
-12 -17 -9 -21 4 -3 1 -6 -6 -6 -7 0 -9 -4 -6 -10 3 -5 1 -10 -6 -10 -7 0 -10
-3 -6 -6 5 -6 -25 -73 -73 -164 -13 -25 -23 -48 -22 -52 1 -5 -3 -8 -10 -8 -6
0 -9 -3 -5 -6 3 -4 -1 -13 -9 -21 -8 -8 -12 -19 -9 -24 4 -5 1 -9 -5 -9 -6 0
-8 -4 -5 -10 3 -5 1 -10 -5 -10 -6 0 -8 -4 -5 -10 3 -5 1 -10 -5 -10 -6 0 -8
-4 -5 -10 3 -5 1 -10 -5 -10 -6 0 -8 -4 -5 -10 3 -5 1 -10 -5 -10 -6 0 -8 -4
-5 -10 3 -5 1 -10 -5 -10 -6 0 -8 -4 -5 -10 3 -5 1 -10 -5 -10 -6 0 -8 -4 -5
-10 3 -5 1 -10 -5 -10 -6 0 -8 -4 -5 -10 3 -5 1 -10 -5 -10 -6 0 -8 -4 -5 -10
3 -5 1 -10 -5 -10 -6 0 -8 -4 -5 -10 3 -5 1 -10 -5 -10 -6 0 -8 -4 -5 -10 3
-5 1 -10 -5 -10 -6 0 -8 -4 -5 -10 3 -5 1 -10 -5 -10 -6 0 -9 -4 -5 -9 3 -5
-1 -16 -9 -24 -8 -8 -12 -17 -9 -21 4 -3 2 -6 -3 -6 -5 0 -10 -10 -11 -22 -1
-11 -6 -24 -11 -27 -13 -9 -8 -103 8 -131 8 -14 14 -28 15 -31 0 -10 33 -39
44 -39 6 0 11 -5 11 -12 0 -6 3 -9 6 -5 4 3 21 0 39 -8 19 -7 35 -12 37 -9 2
2 18 4 36 6 18 1 32 5 32 9 0 6 39 22 51 20 4 0 15 10 25 22 19 21 19 21 -1 8
-11 -7 -8 -2 7 12 15 14 24 28 21 31 -4 3 -1 6 6 6 7 0 9 5 6 10 -3 6 -1 10 5
10 6 0 8 5 5 10 -3 6 -1 10 4 10 6 0 10 3 9 8 -3 15 15 62 24 62 5 0 6 5 3 10
-3 6 -1 10 5 10 6 0 8 5 5 10 -3 6 -1 10 5 10 6 0 8 5 5 10 -3 6 -1 10 5 10 6
0 8 5 5 10 -3 6 -1 10 5 10 6 0 8 5 5 10 -3 6 -1 10 5 10 6 0 8 5 5 10 -3 6
-1 10 5 10 6 0 8 5 5 10 -3 6 -1 10 5 10 6 0 8 5 5 10 -3 6 -1 10 4 10 6 0 10
3 10 8 -4 25 2 42 14 36 6 -4 9 -4 5 0 -9 10 11 66 24 66 5 0 6 5 3 10 -3 6
-1 10 5 10 6 0 8 5 5 10 -3 6 -1 10 5 10 6 0 8 5 5 10 -3 6 -1 10 5 10 6 0 8
5 5 10 -3 6 -1 10 5 10 6 0 8 5 5 10 -3 6 -1 10 5 10 6 0 8 5 5 10 -3 6 -1 10
5 10 6 0 8 5 5 10 -3 6 -1 10 5 10 6 0 8 5 5 10 -3 6 -1 10 4 10 6 0 10 3 10
8 -3 20 2 43 9 38 5 -3 9 0 9 7 0 17 74 171 85 175 4 2 6 8 2 13 -3 5 0 9 6 9
6 0 8 5 5 10 -3 6 -1 10 5 10 6 0 8 5 5 10 -3 6 -1 10 5 10 6 0 8 5 5 10 -3 6
-1 10 5 10 6 0 8 5 5 10 -3 6 -1 10 5 10 6 0 8 5 5 10 -3 6 -1 10 4 10 6 0 10
3 9 8 -3 15 15 62 24 62 5 0 7 4 3 9 -3 5 0 15 7 23 7 7 14 20 16 28 2 8 8 17
13 18 5 2 7 8 3 13 -3 5 0 9 6 9 6 0 8 5 5 10 -3 6 -1 10 5 10 6 0 8 5 5 10
-3 6 -1 10 5 10 6 0 8 5 5 10 -3 6 -1 10 5 10 6 0 9 4 5 9 -3 5 0 15 7 23 7 7
14 20 16 28 2 8 9 18 15 22 7 4 8 8 3 8 -5 0 -2 7 5 16 7 9 14 23 16 32 1 9 6
18 12 20 5 2 7 10 4 19 -4 9 -2 14 3 11 5 -4 9 17 9 47 0 29 -4 51 -9 48 -5
-3 -6 0 -4 8 3 8 -2 20 -11 27 -13 11 -13 12 -1 6 13 -6 13 -5 0 7 -8 8 -20
21 -28 29 -12 13 -13 13 -7 0 4 -8 -2 -6 -12 6 -10 11 -24 19 -31 16 -6 -2
-12 0 -12 5 0 12 -109 12 -116 1z"/>
<path d="M3587 6222 c-9 -19 -7 -27 15 -49 23 -23 28 -24 45 -12 19 14 25 60
10 75 -17 18 -59 10 -70 -14z"/>
<path d="M3209 6144 c6 -3 4 -19 -5 -39 -7 -19 -11 -41 -8 -49 3 -9 1 -16 -6
-16 -6 0 -8 -4 -5 -10 3 -5 1 -10 -6 -10 -7 0 -10 -3 -6 -6 3 -3 -3 -15 -14
-27 -10 -12 -26 -30 -34 -40 -9 -10 -20 -15 -25 -12 -6 4 -10 1 -10 -5 0 -6
-4 -9 -9 -5 -5 3 -12 1 -16 -5 -4 -6 -11 -8 -16 -5 -5 4 -9 2 -9 -4 0 -5 -14
-9 -30 -9 -35 1 -67 -21 -34 -24 10 0 26 -1 34 0 8 1 22 -1 30 -5 8 -3 23 -8
34 -10 44 -8 125 -91 111 -113 -3 -5 -1 -10 5 -10 7 0 10 -7 7 -15 -4 -8 -1
-17 4 -21 6 -3 9 -19 6 -34 -4 -19 -2 -27 8 -27 10 0 12 8 8 27 -3 15 0 31 6
34 5 4 8 13 4 21 -3 8 0 15 7 15 6 0 9 4 5 9 -3 5 2 17 11 25 8 9 12 16 8 16
-4 0 1 9 12 21 20 22 94 64 94 53 0 -4 7 -1 15 6 8 6 18 9 24 6 5 -3 22 -1 38
5 26 10 27 12 8 19 -11 5 -30 6 -42 3 -14 -3 -23 0 -23 7 0 6 -4 8 -10 5 -11
-7 -50 12 -68 34 -11 13 -12 13 -6 1 3 -8 -8 -1 -25 16 -18 17 -34 39 -36 50
-2 10 -4 20 -5 22 -2 1 -3 5 -5 10 -1 4 -5 14 -8 22 -4 8 -6 28 -4 44 1 17 -3
30 -11 32 -7 1 -8 0 -3 -2z"/>
<path d="M7242 5978 c-21 -21 -14 -55 12 -60 27 -5 53 29 43 56 -7 19 -38 21
-55 4z"/>
<path d="M4615 5955 c-8 -5 -17 -22 -20 -37 -6 -22 -1 -33 24 -58 34 -35 64
-34 91 3 16 24 21 57 8 57 -5 0 -7 3 -5 8 14 26 -69 50 -98 27z"/>
<path d="M6870 5942 c0 -5 -11 -14 -24 -21 -34 -19 -31 -68 7 -100 28 -23 30
-24 56 -8 16 9 32 13 36 9 5 -4 5 -1 1 6 -4 6 -3 12 1 12 7 0 9 44 3 60 -1 3
-2 8 -2 12 1 3 -6 12 -15 20 -14 11 -16 11 -8 -2 6 -11 3 -10 -12 3 -21 18
-43 23 -43 9z"/>
<path d="M7100 5590 c0 -6 -6 -9 -12 -7 -7 1 -12 -4 -10 -10 1 -7 -2 -13 -7
-13 -10 0 -3 -71 8 -83 10 -10 61 -16 79 -10 6 3 12 10 12 16 0 6 8 19 17 29
14 16 15 21 4 27 -8 5 -10 14 -7 20 5 7 2 10 -6 9 -7 -2 -12 3 -10 10 1 6 -1
11 -5 11 -5 -1 -10 -1 -13 1 -22 8 -50 8 -50 0z"/>
<path d="M4524 5577 c-8 -4 -18 -6 -23 -2 -5 3 -11 1 -13 -4 -1 -5 -12 -11
-23 -13 -11 -1 -28 -12 -38 -23 -10 -11 -15 -13 -11 -5 7 13 6 13 -10 1 -9 -8
-24 -28 -33 -45 -9 -16 -22 -36 -29 -44 -8 -7 -12 -18 -9 -23 4 -5 1 -9 -5 -9
-6 0 -8 -4 -5 -10 3 -5 1 -10 -5 -10 -6 0 -8 -4 -5 -10 3 -5 1 -10 -6 -10 -7
0 -9 -3 -6 -7 4 -3 -8 -34 -27 -69 -19 -34 -32 -65 -29 -68 4 -3 1 -6 -6 -6
-7 0 -9 -4 -6 -10 3 -5 1 -10 -6 -10 -7 0 -10 -3 -6 -6 3 -4 -6 -30 -20 -58
-15 -28 -26 -54 -25 -58 1 -5 -3 -8 -9 -8 -5 0 -7 -4 -4 -10 3 -5 1 -10 -5
-10 -6 0 -8 -4 -5 -10 3 -5 1 -10 -5 -10 -6 0 -8 -4 -5 -10 3 -5 1 -10 -6 -10
-7 0 -9 -3 -6 -7 4 -3 -11 -39 -32 -79 -22 -40 -37 -75 -33 -78 3 -3 0 -6 -7
-6 -7 0 -9 -4 -6 -10 3 -5 1 -10 -6 -10 -7 0 -9 -3 -6 -6 4 -4 -15 -48 -41
-98 -25 -50 -48 -98 -50 -106 -7 -37 -8 -86 -1 -95 4 -5 8 -14 9 -20 5 -24 14
-38 41 -64 15 -16 31 -26 34 -23 3 3 5 0 5 -7 0 -7 4 -10 9 -6 5 3 12 1 15 -4
7 -11 126 -12 126 -1 0 7 31 20 55 24 6 0 14 11 20 24 5 12 13 22 18 22 4 0 5
5 2 10 -3 6 -1 10 5 10 6 0 8 5 5 10 -3 6 -1 10 5 10 6 0 8 5 5 10 -3 6 -1 10
5 10 6 0 8 5 5 10 -3 6 -1 10 5 10 6 0 8 5 5 10 -3 6 -1 10 4 10 6 0 10 3 9 8
-3 15 15 62 24 62 5 0 6 5 3 10 -3 6 -1 10 5 10 6 0 8 5 5 10 -3 6 -1 10 5 10
6 0 8 5 5 10 -3 6 -1 10 5 10 6 0 9 4 5 9 -3 5 3 17 12 27 10 10 16 19 14 21
-5 6 22 66 36 81 7 8 11 18 8 23 -4 5 -1 9 5 9 6 0 8 5 5 10 -3 6 -1 10 6 10
7 0 10 3 6 6 -3 4 8 34 25 68 18 33 31 64 30 69 -1 4 3 7 9 7 5 0 7 5 4 10 -3
6 -1 10 5 10 6 0 8 5 5 10 -3 6 -1 10 6 10 7 0 9 3 6 6 -4 4 9 37 29 74 30 58
40 69 67 74 37 7 914 6 940 -1 9 -2 17 -11 17 -19 0 -8 5 -14 12 -14 6 0 9 -3
5 -6 -3 -4 1 -13 9 -21 8 -8 12 -19 9 -24 -4 -5 -2 -9 4 -9 10 0 27 -38 23
-52 -1 -5 3 -8 9 -8 5 0 7 -4 4 -10 -3 -5 -1 -10 5 -10 6 0 8 -4 5 -10 -3 -5
-1 -10 4 -10 6 0 10 -3 9 -7 -1 -5 5 -22 15 -39 9 -17 13 -34 10 -38 -4 -3 -1
-6 5 -6 10 0 28 -38 24 -52 -1 -5 3 -8 9 -8 5 0 7 -4 4 -10 -3 -5 -1 -10 5
-10 6 0 9 -4 5 -9 -3 -5 2 -16 10 -25 9 -8 15 -18 15 -21 0 -3 7 -19 15 -35 9
-17 13 -30 10 -30 -4 0 1 -7 9 -16 9 -8 14 -20 11 -25 -4 -5 -1 -9 4 -9 6 0
10 -3 9 -7 -1 -5 8 -27 20 -49 11 -23 18 -44 15 -48 -4 -3 -1 -6 6 -6 7 0 9
-4 6 -10 -3 -5 -1 -10 5 -10 6 0 8 -4 5 -10 -3 -5 -1 -10 5 -10 6 0 9 -4 5 -9
-3 -5 -1 -12 5 -16 6 -4 8 -11 5 -16 -4 -5 -2 -9 4 -9 5 0 13 -10 17 -22 21
-68 130 -119 204 -96 54 17 103 60 115 100 4 13 11 28 15 33 10 12 8 65 -3 83
-5 6 -5 17 -2 22 3 6 1 10 -5 10 -7 0 -10 7 -6 15 3 8 1 15 -5 15 -6 0 -7 5
-4 10 3 6 1 10 -5 10 -6 0 -8 5 -5 10 3 6 1 10 -5 10 -6 0 -8 5 -5 10 3 6 2
10 -4 10 -6 0 -7 7 -4 17 4 10 2 14 -4 10 -12 -7 -36 47 -26 57 4 3 1 6 -6 6
-7 0 -9 5 -6 10 3 6 1 10 -5 10 -6 0 -8 5 -5 10 3 6 1 10 -5 10 -6 0 -8 5 -5
10 3 6 1 10 -5 10 -6 0 -9 4 -6 9 4 5 1 11 -4 13 -6 2 -12 13 -13 26 0 12 -5
22 -10 22 -4 0 -5 5 -2 10 3 6 1 10 -5 10 -6 0 -8 5 -5 10 3 6 1 10 -5 10 -6
0 -8 5 -5 10 3 6 1 10 -5 10 -6 0 -8 5 -5 10 3 6 2 10 -2 10 -9 0 -39 69 -35
83 1 4 -3 7 -9 7 -5 0 -7 5 -4 10 3 6 1 10 -5 10 -6 0 -8 5 -5 10 3 6 1 10 -5
10 -6 0 -8 5 -5 10 3 6 1 10 -5 10 -6 0 -8 5 -5 10 3 6 2 10 -3 10 -12 0 -33
56 -25 64 4 3 1 6 -6 6 -7 0 -9 5 -6 10 3 6 1 10 -5 10 -6 0 -8 5 -5 10 3 6 1
10 -5 10 -6 0 -8 5 -5 10 3 6 1 10 -5 10 -6 0 -8 5 -5 10 3 6 1 10 -5 10 -7 0
-10 7 -6 15 3 8 1 15 -5 15 -6 0 -7 5 -4 10 3 6 1 10 -5 10 -6 0 -8 5 -5 10 3
6 1 10 -5 10 -6 0 -8 5 -5 10 3 6 1 10 -5 10 -6 0 -8 5 -5 10 3 6 1 10 -4 10
-6 0 -11 7 -11 15 0 8 -4 15 -10 15 -5 0 -10 6 -10 13 0 17 -34 49 -43 41 -4
-4 -9 1 -13 10 -3 9 -10 13 -15 10 -5 -3 -9 0 -9 6 0 6 -4 8 -10 5 -5 -3 -10
-1 -10 5 0 6 -4 9 -9 5 -5 -3 -12 -1 -16 5 -4 6 -11 8 -16 5 -5 -4 -13 -3 -19
0 -15 9 -1199 11 -1216 2z"/>
<path d="M3122 5346 c-27 -15 -37 -29 -37 -52 1 -27 36 -72 55 -68 8 1 25 4
38 6 12 3 28 10 35 18 10 10 9 11 -3 5 -12 -7 -13 -6 -3 6 20 25 4 97 -18 84
-5 -4 -9 -2 -9 2 0 12 -36 11 -58 -1z"/>
<path d="M4916 4933 c-13 -13 -17 -14 -11 -3 6 11 5 12 -4 4 -6 -6 -13 -28
-15 -49 -4 -40 20 -76 52 -77 27 -1 72 20 73 34 0 7 2 23 5 36 2 12 -1 22 -7
22 -5 0 -8 4 -5 9 7 10 -36 41 -57 41 -7 0 -21 -8 -31 -17z"/>
<path d="M5444 4882 c-6 -4 -13 -19 -16 -34 -4 -20 0 -29 18 -38 22 -12 64 -6
51 7 -4 3 -2 12 4 20 9 10 8 13 0 13 -7 0 -10 4 -6 9 3 6 -3 15 -14 20 -23 13
-23 13 -37 3z"/>
<path d="M5198 4678 c-4 -9 -4 -25 -1 -36 2 -11 0 -23 -6 -26 -5 -4 -8 -13 -4
-21 3 -8 0 -15 -7 -15 -6 0 -8 -4 -5 -10 3 -5 1 -10 -5 -10 -6 0 -9 -4 -5 -9
3 -6 -4 -15 -15 -21 -11 -6 -17 -16 -14 -22 4 -7 3 -8 -5 -4 -6 4 -14 0 -17
-8 -3 -9 -10 -13 -15 -10 -5 3 -9 0 -9 -6 0 -6 -4 -8 -10 -5 -5 3 -10 1 -10
-5 0 -6 -4 -8 -10 -5 -5 3 -10 1 -10 -5 0 -7 -7 -10 -15 -7 -8 4 -17 1 -21 -5
-4 -6 -22 -8 -46 -4 -24 4 -37 3 -34 -3 6 -10 65 -26 80 -23 4 2 14 -3 22 -9
8 -6 14 -9 14 -5 0 10 62 -23 88 -47 12 -11 22 -26 22 -34 0 -7 5 -13 10 -13
6 0 9 -3 9 -7 -1 -5 0 -10 1 -13 4 -12 12 -47 15 -70 1 -14 3 -29 4 -35 0 -5
8 1 17 13 8 12 12 27 9 32 -3 6 -3 16 2 23 4 6 9 21 11 32 3 26 57 91 71 88 6
-2 11 1 11 6 0 8 30 23 50 26 3 0 10 4 17 8 6 4 18 4 26 1 8 -3 18 -1 22 5 3
6 15 11 26 11 11 0 17 5 14 10 -4 6 -21 8 -40 4 -19 -3 -35 -1 -39 5 -4 5 -13
8 -21 4 -8 -3 -15 0 -15 7 0 6 -4 8 -10 5 -5 -3 -10 -1 -10 6 0 7 -3 9 -7 6
-3 -4 -12 1 -20 11 -9 10 -12 11 -7 2 4 -8 -5 -4 -19 9 -29 26 -34 36 -14 26
6 -4 3 1 -8 10 -11 9 -19 21 -17 26 1 5 -3 9 -9 9 -5 0 -8 4 -4 9 3 5 0 13 -6
16 -5 4 -8 14 -5 22 4 9 2 21 -3 27 -5 6 -11 20 -13 31 -3 17 -5 18 -10 3z"/>
<path d="M4696 4670 c-2 -3 -2 -18 -2 -35 1 -30 2 -31 50 -26 8 1 13 13 12 33
-1 27 -5 31 -29 32 -16 1 -30 -1 -31 -4z"/>
<path d="M4710 4276 c-29 -13 -34 -49 -9 -64 13 -8 21 -6 39 13 19 21 20 26 8
43 -11 17 -17 18 -38 8z"/>
<path d="M5582 4244 c-17 -18 -15 -39 4 -55 28 -23 44 -19 51 12 6 34 4 45 -8
42 -5 -2 -9 1 -9 5 0 13 -24 10 -38 -4z"/>
<path d="M6261 2907 c-4 -4 -18 -9 -30 -10 -11 -1 -21 -4 -21 -7 0 -3 -14 -11
-30 -18 -34 -16 -110 -85 -110 -101 0 -6 -5 -11 -11 -11 -5 0 -7 -4 -4 -10 3
-5 1 -10 -4 -10 -6 0 -10 -3 -10 -7 1 -5 0 -11 -1 -15 -1 -5 -4 -12 -5 -18 -1
-5 -3 -11 -5 -12 -15 -20 -23 -118 -10 -133 7 -9 10 -18 7 -21 -3 -3 1 -17 8
-31 8 -15 12 -30 9 -35 -3 -4 0 -8 6 -8 6 0 8 -4 5 -10 -3 -5 -1 -10 4 -10 6
0 11 -4 11 -9 0 -11 80 -91 91 -91 5 0 9 -5 9 -11 0 -5 5 -7 10 -4 6 3 10 1
10 -5 0 -6 5 -8 10 -5 6 3 10 1 10 -5 0 -6 4 -9 9 -5 5 3 12 1 16 -5 4 -6 11
-8 16 -5 5 4 14 3 21 -1 6 -4 37 -8 68 -8 31 0 62 4 68 8 7 4 16 5 21 1 5 -3
12 -1 16 5 4 6 11 8 16 5 5 -4 9 -2 9 4 0 6 11 13 25 17 14 3 25 10 25 15 0 4
12 14 27 21 15 7 34 26 41 41 7 15 18 27 23 27 6 0 7 5 4 10 -3 6 -1 10 5 10
6 0 8 5 5 10 -3 6 -1 10 5 10 6 0 9 4 5 9 -3 5 -1 12 4 16 6 3 8 12 4 20 -3 8
-1 15 3 15 5 0 9 32 9 70 0 39 -4 70 -9 70 -4 0 -6 7 -2 15 3 8 1 15 -5 15 -6
0 -9 7 -5 15 3 8 1 15 -5 15 -6 0 -7 5 -4 10 3 6 1 10 -5 10 -6 0 -9 4 -6 9 3
5 -1 11 -9 15 -8 3 -15 11 -15 19 0 15 -50 66 -50 51 -1 -5 -9 1 -19 13 -10
12 -21 19 -25 16 -3 -4 -6 -1 -6 6 0 7 -4 9 -10 6 -5 -3 -10 -1 -10 5 0 6 -4
9 -9 5 -5 -3 -12 -1 -16 4 -3 6 -12 8 -20 4 -8 -3 -15 -1 -15 3 0 11 -138 12
-149 1z"/>
<path d="M2423 2758 c-7 -8 -10 -18 -6 -21 3 -4 1 -7 -6 -7 -7 0 -10 -4 -6 -9
3 -5 1 -12 -5 -16 -6 -4 -8 -11 -5 -16 4 -5 2 -9 -2 -9 -5 0 -9 -10 -10 -22
-1 -11 -6 -24 -10 -27 -4 -3 -10 -15 -11 -26 -2 -11 -7 -22 -10 -25 -4 -3 -9
-14 -10 -25 -2 -11 -8 -22 -13 -23 -5 -2 -7 -8 -3 -13 3 -5 0 -9 -6 -9 -6 0
-9 -4 -5 -9 3 -5 1 -12 -4 -16 -6 -3 -8 -12 -4 -20 4 -12 30 -15 134 -15 l129
0 -10 25 c-5 14 -6 25 -2 25 4 0 1 4 -6 9 -7 4 -14 18 -15 29 -1 12 -5 22 -10
22 -4 0 -6 4 -3 9 4 5 1 11 -4 13 -6 2 -12 13 -13 26 0 12 -5 22 -10 22 -4 0
-5 5 -2 10 3 6 1 10 -5 10 -7 0 -10 7 -6 15 3 8 1 15 -5 15 -6 0 -7 5 -4 10 3
6 1 10 -5 10 -6 0 -8 5 -5 10 3 6 2 10 -2 10 -5 0 -13 12 -19 27 -8 22 -11 24
-21 11z"/>
</g>
</svg>
