<?xml version="1.0" standalone="no"?>
<!DOCTYPE svg PUBLIC "-//W3C//DTD SVG 20010904//EN"
 "http://www.w3.org/TR/2001/REC-SVG-20010904/DTD/svg10.dtd">
<svg version="1.0" xmlns="http://www.w3.org/2000/svg"
 width="1024.000000pt" height="1024.000000pt" viewBox="0 0 1024.000000 1024.000000"
 preserveAspectRatio="xMidYMid meet">

<g transform="translate(0.000000,1024.000000) scale(0.100000,-0.100000)"
fill="#000000" stroke="none">
<path d="M5000 8853 c-520 -37 -993 -213 -1409 -523 -316 -237 -565 -538 -750
-907 -235 -469 -317 -983 -241 -1503 72 -490 281 -952 599 -1321 409 -475
1021 -789 1679 -860 142 -15 489 -6 627 16 560 89 1035 322 1419 694 354 344
583 751 707 1255 51 210 64 326 64 591 0 307 -23 465 -110 750 -145 474 -475
954 -865 1257 -206 159 -483 314 -724 403 -299 110 -696 170 -996 148z m-346
-329 c23 -9 20 -51 -5 -64 -25 -14 -49 2 -49 35 0 34 17 43 54 29z m1216 -168
c0 -26 42 -66 82 -78 l40 -12 -38 -13 c-47 -17 -66 -34 -80 -76 l-11 -32 -16
37 c-16 38 -67 78 -100 78 -29 0 -10 17 27 24 38 7 62 29 71 68 7 27 25 30 25
4z m-661 -12 c113 -33 190 -153 178 -275 -5 -39 -2 -68 7 -91 13 -30 222 -459
385 -790 73 -148 82 -186 53 -251 -25 -55 -79 -94 -145 -103 -38 -6 -56 -2
-101 20 -64 31 -66 34 -144 201 -118 255 -302 625 -311 625 -7 0 -198 -389
-349 -710 -27 -58 -59 -115 -71 -127 -74 -78 -201 -76 -275 4 -29 31 -51 102
-43 141 3 16 116 255 252 530 l245 501 -10 45 c-25 115 46 237 162 277 66 23
100 23 167 3z m-484 -129 c0 -25 -4 -30 -24 -30 -32 0 -49 28 -31 50 7 9 23
15 34 13 16 -2 21 -10 21 -33z m-421 -61 c38 -37 27 -96 -20 -114 -66 -26
-125 59 -77 112 20 22 76 24 97 2z m2101 -123 c16 -32 87 -71 129 -71 15 0 25
-4 21 -10 -3 -5 -16 -10 -28 -10 -12 0 -41 -9 -64 -19 -45 -21 -83 -78 -83
-126 0 -39 -17 -21 -23 24 -3 22 -13 51 -23 64 -22 30 -75 57 -109 57 -13 0
-27 5 -30 10 -3 6 0 10 7 10 65 0 143 53 153 103 14 69 18 74 27 34 4 -21 14
-51 23 -66z m-2644 -284 c21 -79 126 -147 226 -147 42 0 43 -17 1 -25 -86 -16
-122 -31 -162 -66 -47 -42 -69 -86 -80 -162 -4 -27 -9 -47 -12 -45 -2 3 -9 31
-15 64 -23 125 -82 182 -210 205 -38 7 -69 15 -69 19 0 4 26 10 57 13 123 13
204 82 218 187 10 70 17 79 27 35 5 -22 13 -57 19 -78z m2828 -4 c12 -23 -4
-53 -29 -53 -26 0 -45 36 -29 56 16 19 46 18 58 -3z m-2184 -87 c0 -36 -26
-56 -49 -37 -31 26 -11 75 29 69 15 -2 20 -11 20 -32z m1653 -16 c44 -41 17
-110 -41 -110 -41 0 -67 26 -67 66 0 58 65 84 108 44z m942 -96 c74 -22 144
-94 166 -172 30 -101 -6 -204 -91 -262 -83 -57 -186 -63 -278 -16 l-45 22
-323 -223 c-907 -626 -890 -614 -882 -637 4 -11 6 -47 6 -78 -2 -97 -62 -187
-152 -226 -46 -20 -156 -20 -202 0 -80 35 -159 138 -159 210 0 17 -8 31 -20
38 -10 6 -176 71 -367 146 -191 75 -547 214 -791 310 -244 96 -446 174 -451
174 -4 0 -20 -14 -37 -31 -69 -74 -201 -101 -289 -60 -50 23 -100 72 -128 125
-30 57 -30 165 0 222 66 124 221 177 341 115 74 -38 142 -135 142 -201 0 -15
43 -35 198 -96 800 -312 1001 -391 1177 -459 110 -42 213 -83 229 -91 28 -14
31 -13 60 15 74 70 191 98 276 66 25 -9 52 -19 60 -21 14 -5 181 107 910 609
107 74 223 153 256 176 l62 41 4 68 c5 92 38 156 102 200 80 53 137 63 226 36z
m-2830 -194 c23 -23 26 -67 5 -94 -22 -29 -82 -27 -107 4 -23 28 -18 77 9 98
25 18 70 15 93 -8z m2128 -112 c2 -19 -2 -28 -18 -33 -24 -8 -50 10 -50 35 0
24 10 31 40 28 19 -2 26 -10 28 -30z m-1124 -329 c13 -7 30 -24 36 -40 26 -62
-45 -122 -99 -82 -42 32 -41 100 1 121 30 14 33 14 62 1z m2178 -156 c22 -20
23 -70 1 -95 -36 -40 -113 -8 -113 49 0 55 70 85 112 46z m-488 -9 c33 -32 8
-78 -35 -67 -22 6 -26 52 -7 71 16 16 23 15 42 -4z m-3440 -216 c15 -25 -3
-52 -37 -56 -21 -3 -28 2 -33 22 -12 49 43 76 70 34z m3706 -21 c0 -63 70
-131 148 -143 47 -7 57 -24 15 -24 -39 0 -110 -37 -133 -70 -11 -16 -23 -49
-26 -74 -7 -50 -24 -63 -24 -18 -1 79 -70 150 -156 160 -56 6 -56 18 -1 27 87
15 141 65 153 141 6 45 23 45 24 1z m-4140 -12 c26 -32 -13 -81 -47 -59 -35
22 -23 74 17 74 10 0 23 -7 30 -15z m3670 -135 c41 -41 10 -120 -47 -120 -31
0 -73 43 -73 75 0 34 33 65 70 65 17 0 39 -9 50 -20z m-517 1 c42 -16 92 -67
119 -123 15 -29 170 -343 344 -698 299 -607 318 -648 318 -700 1 -193 -251
-233 -347 -55 -9 17 -163 332 -342 700 -196 403 -328 686 -331 710 -8 55 29
122 82 152 42 24 114 30 157 14z m-1878 -82 c41 -28 75 -90 75 -137 0 -21 -39
-112 -109 -255 -115 -233 -380 -781 -486 -1002 -81 -170 -119 -205 -222 -205
-91 0 -163 69 -170 163 -4 50 2 65 178 422 100 204 246 503 326 665 79 162
154 306 166 319 59 64 171 78 242 30z m-613 -46 c35 -31 13 -78 -34 -71 -27 4
-37 50 -17 74 15 18 28 18 51 -3z m-428 -123 c3 -16 9 -44 12 -61 10 -49 80
-114 143 -133 30 -9 65 -16 78 -16 43 0 23 -17 -26 -23 -57 -7 -116 -34 -148
-69 -26 -28 -53 -88 -53 -120 0 -13 -4 -30 -9 -37 -8 -12 -11 -8 -16 15 -29
139 -82 194 -204 210 -28 4 -51 9 -51 13 0 4 28 12 62 18 36 7 79 24 102 40
48 33 86 102 86 155 0 45 16 50 24 8z m4064 -132 c30 -30 -11 -85 -44 -57 -14
12 -19 51 -7 62 10 11 38 8 51 -5z m-2603 -14 c26 -10 46 -59 36 -87 -17 -43
-89 -52 -115 -15 -23 33 -19 64 10 87 28 22 42 25 69 15z m2247 -41 c46 -53
24 -113 -42 -113 -29 0 -43 6 -54 22 -34 48 -7 108 48 108 19 0 39 -7 48 -17z
m250 -356 c13 -20 9 -65 -8 -81 -28 -29 -63 -31 -90 -5 -53 50 -3 133 66 107
13 -5 28 -15 32 -21z m-1384 -6 c91 -41 111 -74 316 -512 104 -222 195 -425
202 -450 32 -121 -48 -229 -171 -229 -58 0 -109 23 -139 64 -13 17 -74 139
-135 271 -61 132 -142 301 -179 375 l-67 135 -487 3 -487 2 -15 -23 c-9 -12
-92 -184 -186 -382 -94 -198 -181 -370 -193 -383 -67 -74 -218 -65 -274 14
-27 38 -45 106 -37 141 6 25 120 272 341 733 93 195 133 239 236 260 23 4 308
8 632 7 l590 -2 53 -24z m-2604 -222 c32 -25 34 -64 4 -96 -58 -62 -151 23
-98 90 26 32 58 35 94 6z m1809 -431 c16 -33 13 -52 -11 -80 -35 -41 -112 -7
-112 49 0 39 27 63 70 63 32 0 40 -5 53 -32z m491 -50 c14 -23 -3 -52 -32 -56
-29 -4 -51 40 -32 63 16 20 49 16 64 -7z m-274 -190 c0 -55 18 -102 55 -145
39 -45 84 -67 163 -78 28 -4 52 -10 52 -15 0 -4 -24 -10 -54 -13 -119 -12
-197 -86 -213 -202 -6 -46 -23 -73 -23 -36 0 11 -5 44 -11 73 -20 95 -119 168
-228 168 -17 0 -31 4 -31 9 0 10 35 21 70 21 14 0 48 11 77 24 64 30 99 80
115 164 12 66 28 83 28 30z m-472 0 c17 -17 15 -43 -4 -59 -31 -26 -70 25 -44
56 15 18 32 19 48 3z m-10 -387 c8 -5 12 -21 10 -37 -2 -23 -9 -30 -30 -32
-31 -4 -46 25 -28 58 11 21 27 25 48 11z m910 -70 c4 -28 -40 -50 -63 -31 -20
16 -19 44 1 65 14 14 19 14 38 2 11 -8 22 -24 24 -36z"/>
<path d="M6210 3246 c-384 -81 -613 -456 -510 -836 41 -152 189 -325 341 -398
246 -119 520 -83 737 95 89 73 182 227 213 353 18 73 16 220 -4 297 -58 223
-240 409 -467 477 -76 23 -229 29 -310 12z m256 -355 c64 -29 137 -101 166
-165 32 -72 31 -181 -1 -253 -28 -62 -103 -136 -169 -166 -70 -31 -179 -30
-252 4 -120 56 -181 143 -188 269 -3 60 0 87 17 131 37 99 121 173 225 200 50
13 148 3 202 -20z"/>
<path d="M2270 3168 c-42 -94 -261 -600 -401 -926 -60 -140 -109 -260 -109
-268 0 -12 29 -14 165 -14 190 0 171 -10 221 117 l29 73 248 0 c136 0 250 1
255 3 4 1 28 -42 54 -95 l47 -98 169 0 c93 0 171 3 174 6 7 7 -9 47 -182 439
-72 165 -177 404 -232 530 -55 127 -109 247 -119 268 l-19 37 -134 0 -133 0
-33 -72z m235 -547 c36 -85 64 -156 62 -158 -3 -2 -63 -2 -135 -1 l-131 3 58
140 c31 77 60 149 64 159 4 10 9 17 12 15 2 -3 33 -74 70 -158z"/>
<path d="M3305 3228 c-3 -7 -4 -294 -3 -638 l3 -625 163 -3 c89 -1 163 -1 164
0 1 2 5 155 8 341 l5 338 116 -158 c64 -87 175 -240 248 -340 l133 -183 127 0
c85 0 131 4 139 12 19 19 17 1241 -2 1257 -9 8 -63 11 -167 9 l-154 -3 -5
-332 -5 -331 -240 331 -240 332 -143 3 c-108 2 -144 0 -147 -10z"/>
<path d="M4577 3233 c-13 -12 -8 -278 5 -291 8 -8 63 -12 180 -12 l168 0 0
-485 0 -485 155 0 155 0 10 26 c6 15 10 210 10 485 l0 459 158 0 c211 0 202
-7 202 159 0 85 -4 131 -12 139 -9 9 -138 12 -518 12 -279 0 -510 -3 -513 -7z"/>
<path d="M7257 3233 c-10 -9 -8 -1246 1 -1261 7 -9 47 -12 168 -10 l159 3 5
339 5 338 89 -123 c50 -68 137 -189 196 -269 58 -80 130 -178 159 -218 l53
-73 137 3 136 3 0 635 0 635 -162 3 -163 2 -2 -341 -3 -341 -31 44 c-17 24
-105 144 -195 269 -90 124 -186 257 -214 297 l-50 72 -141 0 c-77 0 -144 -3
-147 -7z"/>
<path d="M4240 1466 l0 -45 53 -3 52 -3 -2 -70 c-2 -38 0 -107 3 -153 l6 -83
41 3 42 3 0 150 0 150 58 3 58 3 -3 42 -3 42 -152 3 -153 3 0 -45z"/>
<path d="M4734 1495 c-3 -6 -3 -94 -2 -195 l3 -185 138 -3 137 -3 0 46 0 45
-90 0 -90 0 0 35 0 35 75 0 75 0 0 40 0 40 -75 0 -75 0 0 35 0 35 90 0 90 0 0
45 0 46 -136 -3 c-82 -2 -138 -7 -140 -13z"/>
<path d="M5310 1499 c-32 -13 -78 -57 -95 -90 -8 -14 -17 -49 -21 -77 -14
-106 69 -207 180 -219 50 -6 135 18 160 46 15 16 13 20 -19 51 -33 32 -36 33
-53 17 -42 -38 -125 -30 -155 17 -35 52 -29 114 13 156 28 28 98 27 135 -1
l27 -22 35 36 36 35 -43 28 c-34 23 -56 29 -109 31 -36 2 -77 -2 -91 -8z"/>
<path d="M5720 1310 l0 -200 45 0 45 0 0 80 0 80 80 0 80 0 0 -81 0 -80 43 3
42 3 0 195 0 195 -42 2 -43 2 0 -75 0 -74 -80 0 -80 0 0 75 0 75 -45 0 -45 0
0 -200z"/>
</g>
</svg>
