<?xml version="1.0" standalone="no"?>
<!DOCTYPE svg PUBLIC "-//W3C//DTD SVG 20010904//EN"
 "http://www.w3.org/TR/2001/REC-SVG-20010904/DTD/svg10.dtd">
<svg version="1.0" xmlns="http://www.w3.org/2000/svg"
 width="1500.000000pt" height="1200.000000pt" viewBox="0 0 1500.000000 1200.000000"
 preserveAspectRatio="xMidYMid meet">

<g transform="translate(0.000000,1200.000000) scale(0.100000,-0.100000)"
fill="#000000" stroke="none">
<path d="M7155 10139 c-387 -37 -680 -104 -1045 -239 -76 -28 -117 -45 -240
-98 -55 -23 -280 -137 -330 -165 -25 -15 -54 -31 -65 -36 -20 -9 -121 -73
-140 -88 -5 -4 -22 -14 -37 -22 -16 -8 -28 -18 -28 -23 0 -4 -4 -8 -10 -8 -25
0 -253 -170 -408 -305 -360 -312 -648 -671 -872 -1085 -31 -58 -62 -114 -68
-125 -63 -110 -226 -517 -272 -680 -74 -263 -106 -425 -137 -690 -21 -188 -24
-655 -5 -825 60 -519 198 -985 431 -1450 102 -203 265 -467 368 -595 5 -5 24
-30 43 -55 143 -185 417 -462 601 -605 35 -27 75 -60 89 -72 14 -13 28 -23 32
-23 3 0 13 -6 20 -14 21 -20 228 -156 239 -156 5 0 9 -3 9 -8 0 -4 21 -18 48
-32 26 -13 49 -27 52 -31 3 -3 32 -21 65 -39 341 -189 727 -340 1065 -416 359
-81 518 -99 910 -99 400 0 491 8 835 77 200 40 265 57 495 131 69 23 249 92
305 117 255 118 480 238 542 290 7 5 14 10 17 10 9 0 297 197 306 209 3 4 14
14 26 22 110 75 410 357 516 484 18 22 51 60 73 85 90 101 265 337 265 357 0
4 6 14 14 22 23 26 147 247 203 361 73 150 106 223 158 357 25 65 50 127 55
138 4 11 15 43 24 70 9 28 23 72 31 98 8 26 15 56 15 66 0 10 3 21 7 25 8 7
15 33 49 171 39 160 70 357 95 595 13 130 7 576 -10 730 -18 165 -59 380 -111
590 -19 78 -109 351 -130 395 -5 11 -23 56 -40 100 -46 118 -195 413 -273 542
-106 176 -232 352 -385 538 -70 86 -355 373 -437 440 -33 28 -62 52 -65 55
-14 14 -109 89 -140 110 -19 13 -37 27 -40 30 -10 13 -99 70 -108 70 -6 0 -12
4 -14 8 -4 11 -94 72 -106 72 -6 0 -12 3 -14 8 -4 10 -175 112 -187 112 -5 0
-11 4 -13 9 -6 18 -359 184 -526 247 -73 28 -273 95 -337 112 -266 74 -434
104 -740 132 -263 24 -416 24 -670 -1z m-403 -506 c32 -29 21 -76 -22 -98 -25
-13 -30 -13 -54 6 -30 24 -34 63 -9 91 20 22 61 23 85 1z m1898 -273 c22 -56
70 -96 128 -107 50 -9 70 -33 28 -33 -63 0 -142 -61 -152 -118 -4 -20 -9 -41
-11 -45 -8 -13 -33 14 -33 35 0 47 -77 117 -138 127 -43 7 -53 28 -18 36 14 3
37 7 50 10 41 8 83 52 97 100 7 25 18 44 23 42 5 -2 17 -23 26 -47z m-983 -25
c158 -78 243 -238 220 -416 -7 -55 -6 -83 3 -108 15 -43 304 -635 604 -1241
l111 -225 0 -80 c0 -95 -21 -143 -87 -200 -63 -53 -102 -68 -188 -69 -58 0
-86 4 -122 21 -86 41 -116 77 -188 228 -162 338 -193 401 -285 590 -53 110
-129 266 -169 347 -39 81 -73 148 -77 148 -3 0 -48 -89 -101 -197 -162 -330
-318 -654 -353 -728 -113 -242 -169 -353 -191 -382 -36 -47 -91 -80 -168 -99
-63 -16 -67 -15 -136 5 -52 16 -84 33 -117 64 -68 62 -87 106 -87 203 l-1 81
82 164 c45 90 140 283 211 429 345 705 435 889 459 933 22 43 23 52 13 78 -7
16 -13 64 -13 107 -1 151 77 280 209 346 75 37 119 46 214 41 72 -4 96 -10
157 -40z m-817 -140 c28 -34 12 -87 -31 -98 -24 -6 -69 31 -69 58 0 9 11 27
24 40 25 25 55 25 76 0z m-658 -134 c29 -26 33 -35 33 -80 0 -42 -5 -55 -27
-78 -23 -22 -36 -27 -79 -27 -47 0 -55 3 -81 34 -63 76 -18 180 78 180 34 0
51 -6 76 -29z m3262 -99 c4 -31 15 -72 25 -89 41 -66 126 -113 209 -113 65 0
48 -22 -28 -38 -124 -24 -193 -89 -208 -194 -5 -37 -12 -53 -22 -53 -11 0 -17
15 -20 55 -3 30 -13 69 -23 87 -25 47 -95 91 -168 105 -34 7 -64 18 -66 23 -2
6 23 16 54 24 131 29 193 88 207 193 12 90 30 90 40 0z m-4129 -462 c23 -116
60 -181 135 -230 73 -48 142 -70 216 -70 42 0 65 -5 74 -15 15 -18 18 -16 -98
-40 -111 -22 -162 -45 -221 -100 -62 -58 -86 -108 -107 -224 -9 -50 -20 -91
-23 -91 -4 0 -15 41 -24 92 -30 156 -87 237 -207 292 -38 17 -167 46 -206 46
-27 0 -33 24 -8 34 9 3 37 6 62 6 26 0 72 8 102 18 158 51 226 130 251 290 8
50 17 82 24 82 8 0 20 -36 30 -90z m4437 -67 c37 -33 11 -103 -38 -103 -25 0
-54 34 -54 62 0 51 54 76 92 41z m-3417 -113 c51 -57 -20 -145 -77 -93 -10 9
-18 30 -18 46 0 59 58 88 95 47z m2575 -47 c58 -34 68 -116 21 -164 -62 -61
-170 -23 -173 62 -2 51 11 78 45 100 39 23 70 24 107 2z m1475 -158 c68 -18
115 -44 169 -94 98 -91 147 -220 128 -337 -6 -36 -21 -86 -33 -112 -27 -55
-119 -150 -169 -174 -19 -9 -48 -22 -64 -29 -19 -9 -66 -14 -130 -14 -98 0
-104 2 -186 42 l-85 41 -35 -27 c-19 -15 -93 -67 -165 -115 -71 -48 -164 -111
-205 -140 -41 -29 -118 -82 -170 -117 -52 -36 -133 -92 -180 -124 -47 -32
-143 -99 -215 -147 -339 -231 -508 -348 -695 -479 -247 -174 -232 -162 -224
-184 14 -38 16 -178 3 -224 -28 -105 -125 -214 -232 -261 -87 -39 -247 -35
-332 7 -132 66 -235 214 -235 336 0 34 -1 35 -97 74 -54 22 -120 49 -148 58
-27 10 -54 22 -59 27 -6 4 -16 8 -24 8 -8 0 -28 6 -45 14 -39 16 -57 23 -332
131 -121 47 -229 90 -240 94 -26 11 -80 32 -190 74 -251 97 -432 168 -447 177
-10 6 -23 10 -29 10 -6 0 -25 6 -42 14 -30 14 -77 32 -412 162 -77 30 -148 59
-157 64 -10 6 -23 10 -29 10 -6 0 -25 6 -42 14 -18 7 -52 21 -77 31 -25 9 -54
21 -65 26 -11 5 -43 17 -70 28 l-51 19 -46 -52 c-58 -66 -150 -115 -233 -125
-80 -9 -179 4 -234 30 -68 32 -154 120 -192 197 -32 64 -34 72 -33 172 0 94 3
111 29 163 56 116 188 213 316 232 134 20 315 -69 393 -194 28 -45 56 -126 56
-162 0 -25 8 -30 98 -68 53 -22 169 -68 257 -101 88 -33 169 -64 180 -69 11
-5 38 -15 60 -24 22 -8 58 -22 80 -30 22 -9 81 -31 130 -50 125 -48 426 -166
450 -176 11 -5 40 -16 65 -26 25 -10 54 -21 65 -26 59 -24 328 -129 535 -208
486 -186 605 -233 615 -242 17 -17 35 -9 76 36 27 29 71 60 118 83 73 36 80
37 181 37 95 -1 111 -4 164 -30 33 -15 65 -28 70 -28 13 0 139 85 796 536 145
100 317 218 382 262 199 135 429 293 511 350 42 30 79 55 81 55 2 0 34 21 72
46 l69 46 6 107 c6 129 34 195 113 275 103 102 238 138 381 101z m-4421 -300
c53 -49 60 -109 17 -157 -26 -29 -36 -33 -79 -33 -56 0 -83 18 -109 72 -13 28
-13 38 -2 66 32 78 117 104 173 52z m3334 -147 c20 -17 15 -76 -7 -88 -37 -19
-69 -12 -86 20 -33 64 35 114 93 68z m-1716 -579 c43 -51 43 -97 -1 -150 -23
-27 -34 -32 -72 -33 -96 -2 -152 99 -98 176 27 38 54 49 104 44 30 -4 47 -13
67 -37z m3379 -218 c23 -24 29 -38 29 -74 0 -37 -6 -51 -31 -76 -66 -67 -179
-15 -179 82 0 58 43 97 105 97 38 0 52 -5 76 -29z m-767 -12 c35 -27 35 -70 1
-98 -22 -16 -31 -18 -56 -9 -35 12 -46 46 -29 88 10 25 21 33 51 39 4 0 18 -8
33 -20z m-5410 -320 c33 -26 35 -70 4 -99 -28 -26 -56 -25 -85 2 -29 27 -29
65 -1 95 27 28 48 29 82 2z m5826 -51 c0 -108 140 -228 267 -228 22 0 33 -5
33 -14 0 -14 -11 -17 -92 -31 -117 -19 -194 -112 -210 -254 -2 -14 -8 -26 -15
-28 -7 -3 -16 23 -23 69 -17 97 -53 148 -133 188 -33 17 -74 30 -91 31 -42 1
-77 12 -77 24 0 5 36 17 80 27 45 9 97 28 118 42 50 35 89 96 97 153 4 27 10
57 13 67 5 19 6 19 19 1 8 -10 14 -32 14 -47z m-6490 -20 c26 -28 25 -56 -2
-85 -28 -30 -62 -29 -87 3 -26 33 -27 58 -1 84 26 26 64 25 90 -2z m5754 -209
c45 -53 46 -104 3 -154 -46 -53 -143 -39 -179 26 -26 45 -22 79 13 122 28 34
34 37 84 37 47 0 56 -3 79 -31z m-823 3 c72 -27 115 -62 159 -129 42 -64 53
-85 185 -358 95 -197 340 -694 658 -1335 239 -482 240 -485 240 -550 1 -101
-50 -197 -127 -237 -41 -21 -116 -43 -151 -43 -32 0 -98 21 -145 45 -54 28
-111 99 -157 195 -57 119 -187 386 -361 740 -74 151 -188 385 -254 520 -66
135 -180 367 -253 515 -74 149 -141 294 -151 323 -63 199 155 391 357 314z
m-2963 -113 c96 -48 152 -133 152 -231 0 -34 -48 -173 -70 -203 -10 -13 -190
-373 -225 -450 -15 -33 -91 -188 -168 -345 -77 -157 -171 -350 -210 -430 -38
-80 -112 -233 -164 -340 -52 -107 -104 -217 -116 -245 -32 -76 -87 -165 -120
-198 -79 -77 -221 -101 -322 -53 -119 55 -191 204 -154 317 13 38 109 236 406
839 273 551 510 1034 562 1144 44 92 107 171 151 189 75 30 100 36 156 37 48
0 73 -6 122 -31z m-918 -97 c26 -32 25 -60 -2 -89 -46 -49 -108 -19 -108 53 0
37 4 45 27 57 33 18 58 12 83 -21z m-677 -198 c14 -96 43 -158 98 -209 61 -57
114 -81 210 -96 101 -16 104 -17 90 -33 -6 -7 -42 -16 -84 -19 -175 -15 -280
-115 -311 -296 -14 -83 -31 -89 -41 -14 -23 189 -133 293 -327 312 -49 5 -64
10 -66 24 -3 14 4 17 35 17 88 0 226 61 282 125 38 44 71 133 71 194 0 26 3
51 7 55 16 16 29 -4 36 -60z m6369 -191 c10 -9 18 -26 18 -39 0 -28 -36 -64
-64 -64 -28 0 -56 29 -56 58 0 54 62 81 102 45z m-4049 -53 c38 -42 38 -103 0
-142 -22 -23 -35 -28 -72 -28 -49 1 -67 10 -94 50 -34 49 -10 127 47 151 37
15 89 2 119 -31z m3474 -22 c95 -66 53 -198 -62 -198 -30 0 -44 7 -71 36 -53
56 -42 133 25 169 37 20 70 18 108 -7z m379 -546 c62 -50 57 -128 -12 -173
-44 -29 -81 -24 -120 15 -44 44 -47 99 -8 145 22 27 32 31 72 31 29 0 55 -7
68 -18z m-2244 -1 c78 -13 152 -51 220 -111 47 -42 66 -70 112 -163 56 -115
266 -563 327 -697 19 -41 72 -153 118 -250 144 -302 145 -305 145 -395 0 -86
-16 -130 -71 -195 -39 -47 -139 -90 -205 -90 -79 0 -161 34 -209 87 -36 38
-59 85 -229 453 -159 344 -351 742 -375 774 -14 18 -38 19 -772 17 l-758 -2
-22 -27 c-12 -15 -22 -30 -23 -33 0 -4 -41 -91 -91 -195 -50 -104 -106 -220
-124 -259 -189 -405 -318 -672 -341 -702 -14 -18 -52 -46 -88 -63 -223 -106
-471 84 -411 314 8 30 61 150 118 268 57 117 120 247 140 288 68 145 129 276
157 335 31 67 142 298 196 411 61 125 171 214 289 233 70 12 1826 13 1897 2z
m-3982 -371 c42 -30 58 -86 36 -128 -31 -61 -94 -84 -147 -54 -41 23 -59 54
-59 106 0 30 7 45 35 73 31 31 40 35 70 30 20 -3 49 -15 65 -27z m2785 -630
c36 -14 55 -34 65 -71 14 -47 1 -87 -35 -115 -56 -42 -128 -26 -161 37 -20 39
-18 71 9 110 29 43 73 57 122 39z m812 -112 c44 -41 18 -108 -41 -108 -41 0
-60 21 -60 65 0 63 54 87 101 43z m-417 -337 c0 -50 22 -116 56 -172 21 -34
67 -75 124 -111 28 -17 164 -48 212 -48 55 0 24 -25 -46 -36 -116 -19 -170
-41 -233 -95 -61 -52 -113 -164 -113 -245 0 -39 -19 -72 -33 -57 -4 3 -7 22
-7 42 0 58 -31 164 -62 208 -53 78 -145 129 -252 140 -129 13 -139 36 -23 53
89 13 186 52 228 92 59 55 109 177 109 264 0 17 3 34 7 38 14 14 33 -28 33
-73z m-740 19 c11 -11 20 -29 20 -40 0 -26 -34 -60 -60 -60 -24 0 -60 37 -60
62 0 24 35 58 60 58 11 0 29 -9 40 -20z m-10 -610 c26 -26 25 -60 0 -88 -26
-28 -54 -28 -80 1 -16 16 -20 30 -16 52 11 54 59 72 96 35z m1384 -41 c48 -22
45 -89 -5 -115 -28 -14 -32 -13 -59 6 -36 26 -39 64 -8 97 24 26 36 28 72 12z"/>
</g>
</svg>
